<?xml version="1.0" encoding="UTF-8"?>
<svg width="62px" height="66px" viewBox="0 0 62 66" version="1.1" xmlns="http://www.w3.org/2000/svg" xmlns:xlink="http://www.w3.org/1999/xlink">
    <!-- Generator: Sketch 48.1 (47250) - http://www.bohemiancoding.com/sketch -->
    <title>arm</title>
    <desc>Created with Sketch.</desc>
    <defs>
        <polygon id="path-1" points="7.85635882e-05 0.257 61.318 0.257 61.318 66 7.85635882e-05 66"></polygon>
    </defs>
    <g id="Page-2" stroke="none" stroke-width="1" fill="none" fill-rule="evenodd">
        <g id="arm" transform="translate(0.000000, -1.000000)">
            <path d="M18.0793,12.2445 L19.9803,11.2305 C20.2443,11.0895 20.4293,10.8505 20.5023,10.5585 C20.5813,10.2435 20.5193,9.9235 20.3283,9.6525 L16.4513,8.0025 L15.3513,11.9285 L18.0793,12.2445 Z M40.0333,64.5405 C34.3513,64.5405 29.3883,64.4545 25.2823,64.2855 C24.7103,64.2615 24.1413,64.2515 23.5713,64.2515 C21.6553,64.2515 19.7093,64.3725 17.8793,64.4975 C17.5333,64.5205 17.1883,64.5325 16.8463,64.5325 C10.6213,64.5325 5.1443,60.7755 2.8933,54.9605 C0.3733,48.4505 5.8103,13.7525 6.1393,12.4015 C7.3053,8.9705 11.1313,2.4135 14.8063,2.4135 C15.0183,2.4135 15.2293,2.4355 15.4323,2.4795 C20.5383,3.5915 22.8803,5.2585 26.8233,10.5905 L27.0563,10.9055 L27.0003,11.3985 L26.9303,11.9325 L26.4363,12.2435 C26.1523,12.3815 25.7373,12.5495 25.4443,12.6665 C24.9093,12.8785 24.4283,13.0765 24.0983,13.2995 L23.8143,13.4905 L23.5073,14.1805 C22.4213,16.6205 20.6293,17.2825 18.0893,17.5575 L17.8703,17.5815 L17.6613,17.5115 C17.5763,17.4825 17.5433,17.4745 17.5303,17.4735 C17.4653,17.4735 12.8873,17.4275 10.6643,15.2045 C10.5613,15.1015 10.4413,15.0865 10.3793,15.0865 C10.3173,15.0865 10.1973,15.1015 10.0953,15.2045 C9.9913,15.3075 9.9763,15.4275 9.9763,15.4895 C9.9763,15.5515 9.9913,15.6715 10.0943,15.7745 C11.3803,17.0615 13.3303,17.6745 14.7403,17.9625 L15.3453,18.0865 L15.5903,18.9975 C17.3863,25.6885 20.1003,35.7995 23.0763,41.1135 L23.3833,41.6625 L23.0223,42.1765 C22.4613,42.9755 21.6323,44.3215 20.8633,46.1945 C20.0253,48.2365 19.4533,50.4305 19.1613,52.7125 C19.1423,52.8575 19.2043,52.9615 19.2423,53.0115 C19.2803,53.0605 19.3653,53.1455 19.5093,53.1635 C19.5123,53.1645 19.5153,53.1645 19.5183,53.1645 C19.7673,53.1645 19.9353,53.0145 19.9603,52.8155 C20.2453,50.5985 20.8003,48.4745 21.6103,46.5005 C22.6203,44.0395 23.7513,42.5175 24.0903,42.0905 L24.2303,41.9095 L24.2513,41.8895 C28.0733,36.9335 33.8173,34.0985 40.0323,34.0985 C41.5153,34.0985 43.0213,34.2625 44.5093,34.5865 C53.5983,36.5685 59.9543,44.5395 59.9653,53.9715 C59.9693,57.0845 59.1793,59.3895 57.5503,61.0195 C54.2923,64.2815 47.9663,64.5405 40.0333,64.5405 Z" id="Fill-1" fill="#DCEFFE"></path>
            <g id="Group-5" transform="translate(0.000000, 0.743500)">
                <mask id="mask-2" fill="white">
                    <use xlink:href="#path-1"></use>
                </mask>
                <g id="Clip-4"></g>
                <path d="M19.6569,10.1143 C19.6319,10.2183 19.5589,10.3973 19.3609,10.5133 L15.4769,11.0073 L16.2619,8.2053 L19.5979,9.6253 C19.6759,9.7783 19.6979,9.9493 19.6569,10.1143 M56.3889,59.9653 C53.4029,62.9553 47.2769,63.1933 39.5799,63.1933 C33.9029,63.1933 28.9539,63.1073 24.8699,62.9393 C24.2849,62.9143 23.7009,62.9043 23.1169,62.9043 C21.1639,62.9043 19.2009,63.0263 17.3579,63.1523 C11.1779,63.5663 5.5869,59.9713 3.3729,54.2523 C1.0349,48.2143 6.1159,14.5123 6.6569,12.2903 C8.0069,8.3313 11.9579,2.5053 14.7689,3.1093 C19.6079,4.1633 21.7609,5.6933 25.5659,10.8383 C25.5599,10.8863 25.5529,10.9353 25.5469,10.9853 C25.5469,10.9893 25.5469,10.9923 25.5459,10.9963 C25.2719,11.1303 24.8659,11.2913 24.5919,11.4013 C24.0019,11.6353 23.4899,11.8493 23.0849,12.1233 L19.9969,11.7643 C20.5089,11.4923 20.8769,11.0223 21.0189,10.4533 C21.1779,9.8143 21.0299,9.1483 20.6139,8.6243 C20.5409,8.5333 20.4469,8.4613 20.3389,8.4163 L16.0769,6.6013 C15.8909,6.5213 15.6809,6.5273 15.4989,6.6143 C15.3159,6.7013 15.1799,6.8633 15.1259,7.0573 L13.8449,11.6353 C13.8349,11.6663 13.8279,11.6983 13.8229,11.7303 C13.8079,11.8283 13.8139,11.9263 13.8379,12.0173 C13.8599,12.0983 13.8959,12.1743 13.9429,12.2413 C14.0099,12.3363 14.0999,12.4153 14.2099,12.4683 C14.2619,12.4933 14.3189,12.5123 14.3779,12.5253 C14.4009,12.5303 14.4249,12.5333 14.4489,12.5353 L22.1399,13.4263 C21.3229,15.2613 20.1059,15.9363 17.5279,16.2163 C17.3879,16.1683 17.2449,16.1263 17.0889,16.1263 C15.9189,16.1223 12.5289,15.7603 10.9179,14.1503 C10.3699,13.6013 9.4819,13.6013 8.9339,14.1503 C8.3859,14.6973 8.3859,15.5863 8.9339,16.1343 C10.3509,17.5523 12.3959,18.2493 14.0859,18.5943 L14.1709,18.9103 C16.0009,25.7273 18.7189,35.8413 21.7499,41.2553 C21.1759,42.0733 20.2969,43.4893 19.4849,45.4673 C18.6149,47.5893 18.0189,49.8663 17.7159,52.2383 C17.6169,53.0073 18.1599,53.7103 18.9289,53.8083 C18.9899,53.8163 19.0499,53.8203 19.1089,53.8203 C19.8049,53.8203 20.4079,53.3033 20.4989,52.5943 C20.7719,50.4673 21.3039,48.4273 22.0819,46.5323 C23.2089,43.7843 24.4739,42.2963 24.4929,42.2743 C24.4999,42.2663 24.5009,42.2563 24.5079,42.2483 C24.5199,42.2333 24.5359,42.2223 24.5479,42.2063 C28.1729,37.4683 33.6509,34.7503 39.5789,34.7503 C40.9899,34.7503 42.4249,34.9073 43.8429,35.2163 C52.4679,37.0963 58.5009,44.6663 58.5109,53.6243 C58.5149,56.4573 57.8209,58.5313 56.3889,59.9653 M44.4399,32.4733 C42.8259,32.1223 41.1909,31.9433 39.5789,31.9433 C33.4719,31.9433 27.7819,34.4533 23.6719,38.8933 C21.1359,33.8023 18.7169,25.0093 17.1239,19.0843 C20.6569,18.8063 23.3079,17.9683 24.8179,14.3483 C25.0349,14.2453 25.3799,14.1083 25.6299,14.0083 C26.9479,13.4833 28.3109,12.9413 28.3109,11.5933 C28.3109,11.4983 28.3249,11.4003 28.3359,11.3013 C28.3889,10.8383 28.4779,10.0613 27.9689,9.3673 C23.6729,3.5213 20.9639,1.5863 15.3659,0.3663 C15.0309,0.2933 14.6849,0.2563 14.3399,0.2563 C9.3929,0.2563 5.2379,7.7533 4.0009,11.3843 C3.9059,11.6623 -2.0621,47.9883 0.7549,55.2653 C3.4139,62.1333 10.1509,66.4603 17.5489,65.9523 C19.8679,65.7943 22.3419,65.6433 24.7529,65.7433 C28.8759,65.9133 33.8649,66.0003 39.5799,66.0003 C47.9369,66.0003 54.6279,65.7013 58.3759,61.9483 C60.3609,59.9613 61.3239,57.2373 61.3189,53.6203 C61.3059,43.3333 54.3659,34.6373 44.4399,32.4733" id="Fill-3" fill="#008AFF" mask="url(#mask-2)"></path>
            </g>
            <path d="M53.9885,47.0882 C51.9675,42.9932 48.2515,40.0872 43.7905,39.1142 C43.4115,39.0302 43.0385,39.2732 42.9555,39.6512 C42.8735,40.0292 43.1135,40.4032 43.4915,40.4862 C47.5325,41.3662 50.8995,43.9992 52.7305,47.7092 C52.8525,47.9572 53.1005,48.1002 53.3605,48.1002 C53.4645,48.1002 53.5695,48.0772 53.6695,48.0272 C54.0175,47.8562 54.1605,47.4352 53.9885,47.0882" id="Fill-6" fill="#FFFFFF"></path>
        </g>
    </g>
</svg>