<?xml version="1.0" encoding="UTF-8"?>
<svg width="1920px" height="1080px" viewBox="0 0 1920 1080" version="1.1" xmlns="http://www.w3.org/2000/svg" xmlns:xlink="http://www.w3.org/1999/xlink" style="background: #FFFFFF;">
    <!-- Generator: Sketch 48.1 (47250) - http://www.bohemiancoding.com/sketch -->
    <title>Full HD</title>
    <desc>Created with Sketch.</desc>
    <defs>
        <polygon id="path-1" points="0.979463556 0.959 90.241 0.959 90.241 99.0832 0.979463556 99.0832"></polygon>
        <polygon id="path-3" points="0 0.395764718 66.5051906 0.395764718 66.5051906 77 0 77"></polygon>
        <polygon id="path-5" points="0.0002 0.139 88.958971 0.139 88.958971 75.8728233 0.0002 75.8728233"></polygon>
        <polygon id="path-7" points="0.000149106655 0.0002 73.1575341 0.0002 73.1575341 99.9831 0.000149106655 99.9831"></polygon>
        <polygon id="path-9" points="0 97 76.193 97 76.193 0.312 0 0.312"></polygon>
        <polygon id="path-11" points="0 82 100.993 82 100.993 0.885 0 0.885"></polygon>
    </defs>
    <g id="Landing-Page" stroke="none" stroke-width="1" fill="none" fill-rule="evenodd">
        <g id="Full-HD">
            <g id="eye" transform="translate(103.000000, 144.000000)">
                <path d="M66.2468,32.4178 C66.2468,41.6908 58.7298,49.2078 49.4568,49.2078 C40.1838,49.2078 32.6658,41.6908 32.6658,32.4178 C32.6658,23.1458 40.1838,15.6278 49.4568,15.6278 C58.7298,15.6278 66.2468,23.1458 66.2468,32.4178" id="Fill-1" fill="#B0E55C"></path>
                <path d="M4.53,30.3553 C13.189,46.0773 29.791,55.7983 48.113,55.7983 C66.434,55.7983 83.036,46.0773 91.693,30.3553 C83.036,14.6343 66.434,4.9133 48.113,4.9133 C29.793,4.9133 13.189,14.6343 4.53,30.3553 M48.113,59.7333 C27.971,59.7333 9.748,48.8263 0.554,31.2683 C0.255,30.6963 0.255,30.0143 0.554,29.4423 C9.748,11.8853 27.971,0.9783 48.113,0.9783 C68.255,0.9783 86.477,11.8853 95.669,29.4423 C95.968,30.0143 95.968,30.6963 95.669,31.2683 C86.477,48.8263 68.255,59.7333 48.113,59.7333" id="Fill-3" fill="#256782"></path>
                <path d="M48.4421,5.7244 C34.6641,5.7244 23.4551,16.9324 23.4551,30.7094 C23.4551,44.4884 34.6641,55.6974 48.4421,55.6974 C62.2191,55.6974 73.4271,44.4884 73.4271,30.7094 C73.4271,16.9324 62.2191,5.7244 48.4421,5.7244 M48.4421,59.6314 C32.4941,59.6314 19.5201,46.6584 19.5201,30.7094 C19.5201,14.7644 32.4941,1.7894 48.4421,1.7894 C64.3881,1.7894 77.3621,14.7644 77.3621,30.7094 C77.3621,46.6584 64.3881,59.6314 48.4421,59.6314" id="Fill-5" fill="#256782"></path>
                <path d="M53.9499,30.3553 C53.9499,33.6113 51.3339,36.2503 48.1109,36.2503 C44.8889,36.2503 42.2729,33.6113 42.2729,30.3553 C42.2729,27.1003 44.8889,24.4613 48.1109,24.4613 C51.3339,24.4613 53.9499,27.1003 53.9499,30.3553" id="Fill-7" fill="#256782"></path>
            </g>
            <g id="shield" transform="translate(1071.000000, 88.000000)">
                <path d="M67.5842,30.3167 C65.4592,30.7487 61.7782,31.2167 57.3532,30.3167 C52.9762,29.4257 49.7972,27.5897 48.0122,26.3737 C46.2272,27.5897 43.0482,29.4257 38.6712,30.3167 C34.2452,31.2167 30.5642,30.7487 28.4402,30.3167 C21.9652,43.7967 22.4842,58.4907 28.8852,68.1257 C29.9882,69.7867 36.6532,79.6827 48.0122,82.5387 C48.0502,82.5487 47.9912,82.5567 48.0122,82.5617 C48.0332,82.5567 47.9742,82.5487 48.0122,82.5387 C59.3712,79.6827 66.0352,69.7867 67.1392,68.1257 C73.5392,58.4907 74.0592,43.7967 67.5842,30.3167" id="Fill-9" fill="#F4C222"></path>
                <g id="Group-13" transform="translate(0.000000, 0.041000)">
                    <mask id="mask-2" fill="white">
                        <use xlink:href="#path-1"></use>
                    </mask>
                    <g id="Clip-12"></g>
                    <path d="M39.1243,93.4012 L44.4093,94.9732 C45.1963,95.2072 46.0253,95.2072 46.8103,94.9752 L52.1623,93.3832 C66.1713,88.2532 74.9773,77.1982 78.1073,72.6852 C88.6713,57.4632 89.0753,34.8262 79.1393,15.0182 L77.2033,11.1592 L72.7693,12.0212 C68.6893,12.8202 64.3733,12.8202 60.2913,12.0212 C56.2423,11.2332 52.2993,9.6392 48.8883,7.4142 L45.6113,5.2762 L42.3363,7.4142 C38.9243,9.6392 34.9793,11.2332 30.9283,12.0212 C26.8463,12.8202 22.5343,12.8202 18.4493,12.0212 L14.0193,11.1592 L12.0823,15.0182 C2.1453,34.8282 2.5493,57.4632 13.1133,72.6832 C16.2423,77.1932 25.0363,88.2312 39.1243,93.4012 M45.6093,99.0832 C44.8293,99.0832 44.0463,98.9712 43.2873,98.7452 L37.9433,97.1552 C37.9053,97.1432 37.8673,97.1312 37.8303,97.1172 C22.6503,91.5692 13.2273,79.7512 9.8803,74.9272 C-1.4907,58.5402 -2.0077,34.3322 8.5653,13.2542 L11.1713,8.0612 C11.5673,7.2732 12.4413,6.8482 13.3053,7.0132 L19.2033,8.1612 C22.7943,8.8612 26.5873,8.8612 30.1743,8.1612 C33.7323,7.4682 37.1953,6.0692 40.1863,4.1192 L44.5353,1.2792 C45.1893,0.8522 46.0323,0.8522 46.6863,1.2792 L51.0373,4.1192 C54.0263,6.0692 57.4873,7.4682 61.0443,8.1612 C64.6343,8.8612 68.4293,8.8612 72.0163,8.1612 L77.9183,7.0132 C78.7783,6.8442 79.6563,7.2742 80.0523,8.0612 L82.6543,13.2542 C93.2283,34.3322 92.7123,58.5402 81.3413,74.9282 C77.9963,79.7482 68.5793,91.5622 53.3993,97.1162 L47.9303,98.7462 C47.1713,98.9712 46.3903,99.0832 45.6093,99.0832" id="Fill-11" fill="#256782" mask="url(#mask-2)"></path>
                </g>
                <path d="M22.9124,24.8826 C16.2254,39.1736 16.5904,55.0286 23.9444,65.6276 C26.5854,69.4326 33.9384,78.5176 45.6124,81.5166 C57.2704,78.5306 64.6344,69.4336 67.2774,65.6276 C74.6314,55.0276 74.9974,39.1726 68.3084,24.8826 C64.4464,25.4546 60.4314,25.3696 56.6054,24.6246 C52.6814,23.8606 48.9894,22.4486 45.6114,20.4196 C42.2344,22.4486 38.5414,23.8606 34.6164,24.6246 C30.7904,25.3696 26.7774,25.4546 22.9124,24.8826 M45.6114,85.5366 C45.4604,85.5366 45.3084,85.5196 45.1604,85.4846 C45.0504,85.4586 44.9424,85.4236 44.8414,85.3806 C31.7634,82.0986 23.6204,72.0606 20.7134,67.8706 C12.3234,55.7826 12.0564,37.7026 20.0294,21.8126 C20.4244,21.0236 21.3034,20.5996 22.1634,20.7636 C25.9874,21.5076 30.0324,21.5076 33.8654,20.7636 C37.6544,20.0246 41.3454,18.5336 44.5354,16.4516 C45.1894,16.0246 46.0324,16.0246 46.6864,16.4516 C49.9224,18.5646 53.5124,20.0156 57.3564,20.7636 C61.1864,21.5076 65.2334,21.5076 69.0574,20.7636 C69.9214,20.5966 70.7974,21.0226 71.1914,21.8126 C79.1664,37.7026 78.8974,55.7806 70.5094,67.8706 C67.5994,72.0616 59.4514,82.1066 46.3814,85.3806 C46.2874,85.4206 46.1884,85.4526 46.0874,85.4786 C45.9324,85.5166 45.7704,85.5366 45.6114,85.5366" id="Fill-14" fill="#256782"></path>
                <path d="M45.6116,20.6224 C44.5246,20.6224 43.6436,19.7424 43.6436,18.6554 L43.6436,11.0894 C43.6436,10.0034 44.5246,9.1224 45.6116,9.1224 C46.6976,9.1224 47.5786,10.0034 47.5786,11.0894 L47.5786,18.6554 C47.5786,19.7424 46.6976,20.6224 45.6116,20.6224" id="Fill-16" fill="#256782"></path>
                <path d="M45.6116,97.1551 C44.5246,97.1551 43.6436,96.2751 43.6436,95.1881 L43.6436,89.3791 C43.6436,88.2921 44.5246,87.4121 45.6116,87.4121 C46.6976,87.4121 47.5786,88.2921 47.5786,89.3791 L47.5786,95.1881 C47.5786,96.2751 46.6976,97.1551 45.6116,97.1551" id="Fill-18" fill="#256782"></path>
            </g>
            <g id="house-key" transform="translate(1713.000000, 846.000000)">
                <path d="M55.2385,51.7425 C55.2385,47.8675 52.0975,44.7275 48.2225,44.7275 C44.3485,44.7275 41.2075,47.8675 41.2075,51.7425 C41.2075,54.6925 43.0335,57.2065 45.6125,58.2435 L45.6125,75.0725 L52.1375,75.0725 L52.1375,57.5635 C54.0085,56.3035 55.2385,54.1665 55.2385,51.7425" id="Fill-20" fill="#F4C222"></path>
                <path d="M47.1115,40.2942 C42.1475,40.2942 38.1095,44.3312 38.1095,49.2952 C38.1095,52.2982 39.6835,55.0172 42.4295,56.7502 C43.0005,57.1102 43.3455,57.7382 43.3455,58.4132 L43.3455,70.4992 C43.3455,72.5732 45.0355,74.2622 47.1115,74.2622 C49.1875,74.2622 50.8765,72.5732 50.8765,70.4992 L50.8765,58.4132 C50.8765,57.7382 51.2215,57.1102 51.7925,56.7502 C54.5375,55.0172 56.1105,52.2992 56.1105,49.2952 C56.1105,44.3312 52.0735,40.2942 47.1115,40.2942 M47.1115,78.1972 C42.8655,78.1972 39.4115,74.7432 39.4115,70.4992 L39.4115,59.4462 C36.1135,56.9792 34.1755,53.2582 34.1755,49.2952 C34.1755,42.1632 39.9785,36.3592 47.1115,36.3592 C54.2435,36.3592 60.0455,42.1632 60.0455,49.2952 C60.0455,53.2582 58.1075,56.9792 54.8105,59.4462 L54.8105,70.4992 C54.8105,74.7432 51.3575,78.1972 47.1115,78.1972" id="Fill-22" fill="#256782"></path>
                <path d="M83.3391,90.1394 L10.8821,90.1394 C9.7951,90.1394 8.9151,89.2594 8.9151,88.1724 L8.9151,44.9234 C8.9151,43.8364 9.7951,42.9554 10.8821,42.9554 C11.9691,42.9554 12.8491,43.8364 12.8491,44.9234 L12.8491,86.2054 L81.3711,86.2054 L81.3711,34.4124 C81.3711,33.3264 82.2521,32.4454 83.3391,32.4454 C84.4251,32.4454 85.3061,33.3264 85.3061,34.4124 L85.3061,88.1724 C85.3061,89.2594 84.4251,90.1394 83.3391,90.1394" id="Fill-24" fill="#256782"></path>
                <path d="M2.0051,43.7151 C1.4521,43.7151 0.9031,43.4851 0.5151,43.0321 C-0.1949,42.2101 -0.1049,40.9681 0.7191,40.2581 L45.8261,1.3241 C46.6491,0.6111 47.8911,0.7051 48.6011,1.5291 C49.3111,2.3511 49.2201,3.5931 48.3961,4.3031 L3.2881,43.2371 C2.9161,43.5581 2.4601,43.7151 2.0051,43.7151" id="Fill-26" fill="#256782"></path>
                <path d="M92.217,43.7151 C91.762,43.7151 91.306,43.5581 90.934,43.2371 L45.826,4.3031 C45.003,3.5931 44.912,2.3511 45.622,1.5291 C46.33,0.7051 47.572,0.6131 48.396,1.3241 L93.503,40.2581 C94.327,40.9681 94.418,42.2101 93.708,43.0321 C93.32,43.4851 92.771,43.7151 92.217,43.7151" id="Fill-28" fill="#256782"></path>
                <path d="M22.4992,26.0247 C21.4122,26.0247 20.5312,25.1437 20.5312,24.0577 L20.5312,9.8277 C20.5312,8.7417 21.4122,7.8607 22.4992,7.8607 C23.5852,7.8607 24.4662,8.7417 24.4662,9.8277 L24.4662,24.0577 C24.4662,25.1437 23.5852,26.0247 22.4992,26.0247" id="Fill-30" fill="#256782"></path>
            </g>
            <g id="house-locked" transform="translate(1271.000000, 753.000000)">
                <path d="M81.0363,87.1233 L65.4363,87.1233 C63.8883,87.1233 62.6323,85.8683 62.6323,84.3193 L62.6323,75.7893 C62.6323,74.2403 63.8883,72.9853 65.4363,72.9853 L81.0363,72.9853 C82.5843,72.9853 83.8403,74.2403 83.8403,75.7893 L83.8403,84.3193 C83.8403,85.8683 82.5843,87.1233 81.0363,87.1233" id="Fill-54" fill="#EF8975"></path>
                <path d="M50.759,90.1394 L11.382,90.1394 C10.296,90.1394 9.415,89.2594 9.415,88.1724 L9.415,43.3494 C9.415,42.2624 10.296,41.3824 11.382,41.3824 C12.468,41.3824 13.349,42.2624 13.349,43.3494 L13.349,86.2054 L50.759,86.2054 C51.845,86.2054 52.726,87.0864 52.726,88.1724 C52.726,89.2594 51.845,90.1394 50.759,90.1394" id="Fill-55" fill="#256782"></path>
                <path d="M83.8405,53.2835 C82.7545,53.2835 81.8735,52.4025 81.8735,51.3165 L81.8735,34.4125 C81.8735,33.3255 82.7545,32.4455 83.8405,32.4455 C84.9265,32.4455 85.8075,33.3255 85.8075,34.4125 L85.8075,51.3165 C85.8075,52.4025 84.9265,53.2835 83.8405,53.2835" id="Fill-56" fill="#256782"></path>
                <path d="M2.5056,43.7151 C1.9516,43.7151 1.4036,43.4851 1.0146,43.0321 C0.3046,42.2101 0.3956,40.9681 1.2186,40.2581 L46.3266,1.3241 C47.1506,0.6111 48.3906,0.7051 49.1006,1.5291 C49.8106,2.3511 49.7196,3.5931 48.8966,4.3031 L3.7886,43.2371 C3.4166,43.5581 2.9606,43.7151 2.5056,43.7151" id="Fill-57" fill="#256782"></path>
                <path d="M92.7175,43.7151 C92.2625,43.7151 91.8055,43.5581 91.4345,43.2371 L46.3265,4.3031 C45.5025,3.5931 45.4125,2.3511 46.1225,1.5291 C46.8305,0.7051 48.0725,0.6131 48.8965,1.3241 L94.0035,40.2581 C94.8275,40.9681 94.9185,42.2101 94.2085,43.0321 C93.8195,43.4851 93.2705,43.7151 92.7175,43.7151" id="Fill-58" fill="#256782"></path>
                <path d="M22.9988,26.0247 C21.9128,26.0247 21.0318,25.1437 21.0318,24.0577 L21.0318,9.8277 C21.0318,8.7417 21.9128,7.8607 22.9988,7.8607 C24.0858,7.8607 24.9658,8.7417 24.9658,9.8277 L24.9658,24.0577 C24.9658,25.1437 24.0858,26.0247 22.9988,26.0247" id="Fill-59" fill="#256782"></path>
                <path d="M83.8405,36.3797 L11.3825,36.3797 C10.2955,36.3797 9.4145,35.4997 9.4145,34.4127 C9.4145,33.3257 10.2955,32.4457 11.3825,32.4457 L83.8405,32.4457 C84.9265,32.4457 85.8075,33.3257 85.8075,34.4127 C85.8075,35.4997 84.9265,36.3797 83.8405,36.3797" id="Fill-60" fill="#256782"></path>
                <path d="M26.54,64.794 L42.157,64.794 L42.157,49.177 L26.54,49.177 L26.54,64.794 Z M44.124,68.728 L24.572,68.728 C23.486,68.728 22.606,67.848 22.606,66.762 L22.606,47.21 C22.606,46.123 23.486,45.242 24.572,45.242 L44.124,45.242 C45.211,45.242 46.092,46.123 46.092,47.21 L46.092,66.762 C46.092,67.848 45.211,68.728 44.124,68.728 Z" id="Fill-61" fill="#256782"></path>
                <path d="M60.2366,69.7518 C59.3596,69.7518 58.6446,70.4668 58.6446,71.3458 L58.6446,84.6118 C58.6446,85.4908 59.3596,86.2058 60.2366,86.2058 L80.2796,86.2058 C81.1586,86.2058 81.8736,85.4908 81.8736,84.6118 L81.8736,71.3458 C81.8736,70.4668 81.1586,69.7518 80.2796,69.7518 L60.2366,69.7518 Z M80.2796,90.1398 L60.2366,90.1398 C57.1886,90.1398 54.7106,87.6588 54.7106,84.6118 L54.7106,71.3458 C54.7106,68.2978 57.1886,65.8178 60.2366,65.8178 L80.2796,65.8178 C83.3276,65.8178 85.8076,68.2978 85.8076,71.3458 L85.8076,84.6118 C85.8076,87.6588 83.3276,90.1398 80.2796,90.1398 Z" id="Fill-62" fill="#256782"></path>
                <path d="M78.8811,66.7122 C77.7951,66.7122 76.9141,65.8312 76.9141,64.7452 L76.9141,62.6302 C76.9141,58.9492 73.9211,55.9542 70.2391,55.9542 C66.5591,55.9542 63.5641,58.9492 63.5641,62.6302 L63.5641,64.7452 C63.5641,65.8312 62.6831,66.7122 61.5961,66.7122 C60.5101,66.7122 59.6301,65.8312 59.6301,64.7452 L59.6301,62.6302 C59.6301,56.7792 64.3891,52.0202 70.2381,52.0202 C76.0891,52.0202 80.8481,56.7792 80.8481,62.6302 L80.8481,64.7452 C80.8481,65.8312 79.9681,66.7122 78.8811,66.7122" id="Fill-63" fill="#256782"></path>
                <path d="M70.258,80.6419 C69.172,80.6419 68.291,79.7619 68.291,78.6749 L68.291,77.2829 C68.291,76.1959 69.172,75.3149 70.258,75.3149 C71.344,75.3149 72.225,76.1959 72.225,77.2829 L72.225,78.6749 C72.225,79.7619 71.344,80.6419 70.258,80.6419" id="Fill-64" fill="#256782"></path>
            </g>
            <g id="siren" transform="translate(354.000000, 231.000000)">
                <path d="M72.3703,72.1815 L72.3703,55.1625 C72.3703,43.2635 62.6343,33.5275 50.7333,33.5275 C38.8333,33.5275 29.0973,43.2635 29.0973,55.1625 L29.0973,72.1815 L72.3703,72.1815 Z" id="Fill-79" fill="#EF8975"></path>
                <path d="M78.5832,89.3729 L13.6402,89.3729 C12.5532,89.3729 11.6722,88.4919 11.6722,87.4049 C11.6722,86.3189 12.5532,85.4379 13.6402,85.4379 L78.5832,85.4379 C79.6692,85.4379 80.5502,86.3189 80.5502,87.4049 C80.5502,88.4919 79.6692,89.3729 78.5832,89.3729" id="Fill-80" fill="#256782"></path>
                <path d="M78.5832,82.0535 L13.6402,82.0535 C12.5532,82.0535 11.6722,81.1735 11.6722,80.0865 C11.6722,78.9995 12.5532,78.1195 13.6402,78.1195 L78.5832,78.1195 C79.6692,78.1195 80.5502,78.9995 80.5502,80.0865 C80.5502,81.1735 79.6692,82.0535 78.5832,82.0535" id="Fill-81" fill="#256782"></path>
                <path d="M72.3694,73.7908 C71.2834,73.7908 70.4024,72.9098 70.4024,71.8228 L70.4024,51.8948 C70.4024,38.5018 59.5054,27.6038 46.1114,27.6038 C32.7164,27.6038 21.8184,38.5018 21.8184,51.8948 L21.8184,71.8228 C21.8184,72.9098 20.9374,73.7908 19.8514,73.7908 C18.7654,73.7908 17.8844,72.9098 17.8844,71.8228 L17.8844,51.8948 C17.8844,36.3318 30.5464,23.6698 46.1114,23.6698 C61.6754,23.6698 74.3374,36.3318 74.3374,51.8948 L74.3374,71.8228 C74.3374,72.9098 73.4564,73.7908 72.3694,73.7908" id="Fill-82" fill="#256782"></path>
                <path d="M7.8537,68.8465 C7.1577,68.8465 6.4827,68.4765 6.1257,67.8235 L5.7387,67.0955 C5.2347,66.1335 5.6067,64.9465 6.5707,64.4425 C7.5277,63.9375 8.7217,64.3095 9.2237,65.2735 L9.5777,65.9355 C10.0987,66.8885 9.7487,68.0835 8.7947,68.6055 C8.4957,68.7695 8.1727,68.8465 7.8537,68.8465" id="Fill-83" fill="#256782"></path>
                <path d="M47.1535,4.4207 L47.1085,4.4207 C46.7765,4.4127 46.4445,4.4087 46.1115,4.4087 L45.5675,4.4117 L45.5365,4.4117 C44.4645,4.4117 43.5865,3.5517 43.5695,2.4757 C43.5515,1.3907 44.4195,0.4937 45.5065,0.4777 L46.1265,0.4747 C46.5265,0.4667 46.8355,0.4797 47.1945,0.4867 C48.2815,0.5117 49.1415,1.4117 49.1185,2.4967 C49.0935,3.5677 48.2175,4.4207 47.1535,4.4207 M32.8285,6.4777 C31.9955,6.4777 31.2225,5.9447 30.9555,5.1107 C30.6235,4.0747 31.1935,2.9687 32.2275,2.6367 C32.7655,2.4647 33.3065,2.3017 33.8505,2.1507 C34.8935,1.8597 35.9815,2.4727 36.2725,3.5197 C36.5645,4.5657 35.9515,5.6497 34.9045,5.9417 C34.4095,6.0787 33.9185,6.2267 33.4285,6.3837 C33.2295,6.4477 33.0265,6.4777 32.8285,6.4777 M59.8385,6.6217 C59.6335,6.6217 59.4255,6.5897 59.2215,6.5227 C58.7315,6.3597 58.2385,6.2077 57.7455,6.0647 C56.7015,5.7597 56.1015,4.6667 56.4065,3.6247 C56.7115,2.5817 57.8145,1.9827 58.8445,2.2857 C59.3845,2.4427 59.9215,2.6097 60.4545,2.7867 C61.4875,3.1267 62.0475,4.2397 61.7055,5.2707 C61.4335,6.0977 60.6635,6.6217 59.8385,6.6217 M21.2805,12.1757 C20.6585,12.1757 20.0465,11.8807 19.6645,11.3317 C19.0445,10.4397 19.2645,9.2147 20.1555,8.5937 C20.6195,8.2707 21.0885,7.9567 21.5605,7.6557 C22.4715,7.0667 23.6905,7.3327 24.2775,8.2487 C24.8645,9.1637 24.5985,10.3807 23.6835,10.9667 C23.2555,11.2427 22.8265,11.5287 22.4025,11.8237 C22.0595,12.0627 21.6685,12.1757 21.2805,12.1757 M71.3195,12.4407 C70.9245,12.4407 70.5265,12.3217 70.1805,12.0757 C69.7595,11.7757 69.3365,11.4867 68.9075,11.2057 C67.9995,10.6077 67.7465,9.3887 68.3425,8.4817 C68.9405,7.5707 70.1655,7.3217 71.0675,7.9177 C71.5365,8.2267 72.0005,8.5427 72.4625,8.8697 C73.3465,9.4987 73.5535,10.7267 72.9245,11.6127 C72.5415,12.1527 71.9345,12.4407 71.3195,12.4407 M11.8965,20.9887 C11.4705,20.9887 11.0415,20.8517 10.6805,20.5667 C9.8265,19.8957 9.6805,18.6577 10.3535,17.8057 C10.7015,17.3617 11.0585,16.9277 11.4265,16.4977 C12.1305,15.6707 13.3735,15.5737 14.1995,16.2787 C15.0255,16.9837 15.1225,18.2267 14.4175,19.0517 C14.0835,19.4417 13.7585,19.8397 13.4425,20.2397 C13.0555,20.7327 12.4795,20.9887 11.8965,20.9887 M80.6135,21.3597 C80.0225,21.3597 79.4385,21.0957 79.0515,20.5917 C78.7395,20.1857 78.4185,19.7857 78.0905,19.3897 C77.3935,18.5557 77.5065,17.3157 78.3415,16.6197 C79.1755,15.9227 80.4165,16.0377 81.1105,16.8727 C81.4735,17.3057 81.8285,17.7487 82.1715,18.1937 C82.8345,19.0547 82.6725,20.2897 81.8105,20.9527 C81.4535,21.2277 81.0315,21.3597 80.6135,21.3597 M5.5055,32.1637 C5.2665,32.1637 5.0255,32.1207 4.7905,32.0297 C3.7795,31.6357 3.2785,30.4947 3.6725,29.4827 C3.8765,28.9597 4.0905,28.4407 4.3125,27.9237 C4.7425,26.9267 5.8985,26.4617 6.8975,26.8977 C7.8945,27.3267 8.3545,28.4847 7.9245,29.4827 C7.7195,29.9557 7.5245,30.4317 7.3385,30.9107 C7.0355,31.6897 6.2925,32.1637 5.5055,32.1637 M86.8825,32.6037 C86.0875,32.6037 85.3375,32.1157 85.0405,31.3257 C84.8605,30.8467 84.6725,30.3697 84.4715,29.8987 C84.0505,28.8967 84.5215,27.7437 85.5215,27.3207 C86.5265,26.8997 87.6795,27.3717 88.0985,28.3707 C88.3175,28.8917 88.5275,29.4177 88.7245,29.9457 C89.1075,30.9617 88.5915,32.0967 87.5735,32.4797 C87.3455,32.5637 87.1125,32.6037 86.8825,32.6037 M2.6575,44.7197 C2.6095,44.7197 2.5585,44.7187 2.5095,44.7137 C1.4255,44.6337 0.6135,43.6907 0.6945,42.6067 C0.7365,42.0437 0.7885,41.4837 0.8515,40.9237 C0.9715,39.8437 1.9395,39.0837 3.0265,39.1887 C4.1045,39.3107 4.8825,40.2827 4.7605,41.3627 C4.7045,41.8737 4.6555,42.3857 4.6165,42.8987 C4.5415,43.9327 3.6775,44.7197 2.6575,44.7197 M89.5975,45.1907 C88.5695,45.1907 87.7045,44.3927 87.6355,43.3527 C87.6025,42.8367 87.5595,42.3217 87.5075,41.8107 C87.3995,40.7307 88.1875,39.7657 89.2685,39.6557 C90.3305,39.5607 91.3135,40.3347 91.4235,41.4167 C91.4785,41.9757 91.5245,42.5327 91.5615,43.0937 C91.6335,44.1777 90.8115,45.1147 89.7275,45.1857 C89.6835,45.1887 89.6405,45.1907 89.5975,45.1907 M3.5925,57.5617 C2.6925,57.5617 1.8815,56.9407 1.6745,56.0257 C1.5515,55.4777 1.4385,54.9257 1.3365,54.3727 C1.1355,53.3047 1.8405,52.2777 2.9095,52.0797 C3.9855,51.8737 5.0065,52.5867 5.2025,53.6527 C5.2965,54.1567 5.4005,54.6597 5.5135,55.1627 C5.7525,56.2227 5.0875,57.2747 4.0265,57.5137 C3.8825,57.5457 3.7365,57.5617 3.5925,57.5617 M88.5245,58.0197 C88.3775,58.0197 88.2265,58.0027 88.0745,57.9677 C87.0165,57.7197 86.3605,56.6627 86.6085,55.6037 C86.7245,55.1017 86.8345,54.5977 86.9335,54.0917 C87.1455,53.0277 88.1715,52.3367 89.2475,52.5437 C90.3115,52.7557 91.0055,53.7897 90.7945,54.8567 C90.6855,55.4047 90.5675,55.9517 90.4375,56.5007 C90.2255,57.4077 89.4175,58.0197 88.5245,58.0197" id="Fill-84" fill="#256782"></path>
                <path d="M84.1145,69.3065 C83.7865,69.3065 83.4545,69.2245 83.1485,69.0525 C82.2035,68.5195 81.8685,67.3195 82.4015,66.3715 L82.7645,65.7155 C83.2795,64.7585 84.4765,64.4025 85.4295,64.9195 C86.3855,65.4365 86.7425,66.6285 86.2255,67.5845 L85.8295,68.3055 C85.4685,68.9465 84.8015,69.3065 84.1145,69.3065" id="Fill-85" fill="#256782"></path>
                <path d="M30.8674,51.3094 C30.7674,51.3094 30.6674,51.3014 30.5664,51.2874 C29.4934,51.1224 28.7564,50.1194 28.9204,49.0444 C30.1464,41.0254 37.1674,35.0064 45.2704,35.0064 L45.3754,35.0064 C46.4624,35.0144 47.3364,35.9004 47.3304,36.9864 C47.3224,38.0684 46.4434,38.9414 45.3624,38.9414 C45.3324,38.9364 45.3014,38.9414 45.2704,38.9414 C39.0944,38.9414 33.7444,43.5274 32.8084,49.6404 C32.6594,50.6134 31.8214,51.3094 30.8674,51.3094" id="Fill-86" fill="#256782"></path>
            </g>
            <g id="key" transform="translate(1485.000000, 839.000000)">
                <path d="M4.6135,90.3143 L53.8745,41.9013 C53.8745,41.9013 80.6365,58.4103 92.8455,30.3353 C93.8395,49.4173 73.1945,57.2583 73.1945,57.2583 L58.2755,58.5873 L55.1985,57.0673 L43.9925,69.0603 C43.9925,69.0603 37.3215,66.7123 36.9055,67.4603 C36.4895,68.2103 37.4315,74.6263 37.4315,74.6263 C37.4315,74.6263 33.0025,81.8563 32.1655,81.5973 C31.3285,81.3383 23.1015,80.3493 23.1015,80.3493 C23.1015,80.3493 21.8805,92.3153 20.3665,92.4283 C18.8525,92.5433 4.6135,90.3143 4.6135,90.3143" id="Fill-87" fill="#F4C222"></path>
                <path d="M67.7531,20.6854 C66.0791,20.6854 64.4071,21.3214 63.1331,22.5934 C60.5871,25.1414 60.5871,29.2854 63.1331,31.8324 C65.6811,34.3814 69.8251,34.3814 72.3731,31.8324 C74.9191,29.2854 74.9191,25.1414 72.3731,22.5934 C71.0991,21.3214 69.4261,20.6854 67.7531,20.6854 M67.7531,37.6804 C64.9581,37.6804 62.3281,36.5924 60.3521,34.6154 C58.3741,32.6384 57.2861,30.0084 57.2861,27.2134 C57.2861,24.4174 58.3741,21.7894 60.3521,19.8124 C64.4331,15.7334 71.0721,15.7334 75.1541,19.8124 C77.1321,21.7894 78.2201,24.4174 78.2201,27.2134 C78.2201,30.0084 77.1321,32.6384 75.1541,34.6154 C73.1781,36.5924 70.5481,37.6804 67.7531,37.6804" id="Fill-88" fill="#256782"></path>
                <path d="M20.7707,94.0408 C20.6687,94.0408 20.5677,94.0328 20.4647,94.0188 L5.0077,91.5998 C4.1637,91.4668 3.4997,90.8028 3.3677,89.9588 L0.9487,74.5038 C0.8517,73.8828 1.0577,73.2528 1.5017,72.8088 L36.5587,37.7498 C37.3267,36.9808 38.5717,36.9808 39.3397,37.7498 C40.1087,38.5188 40.1087,39.7638 39.3397,40.5318 L4.9907,74.8828 L7.0327,87.9338 L19.2747,89.8488 L21.6677,79.7658 C21.8907,78.8258 22.7667,78.1908 23.7227,78.2568 L31.2597,78.8018 L35.6927,74.3678 L33.9007,67.5158 C33.7217,66.8318 33.9247,66.1038 34.4297,65.6088 C34.9357,65.1148 35.6697,64.9308 36.3477,65.1268 L43.0167,67.0468 L49.7427,60.3178 C50.5117,59.5498 51.7557,59.5498 52.5247,60.3178 C53.2927,61.0868 53.2927,62.3318 52.5247,63.1008 L44.9777,70.6488 C44.4737,71.1528 43.7337,71.3488 43.0417,71.1478 L38.5827,69.8638 L39.7847,74.4638 C39.9607,75.1398 39.7677,75.8578 39.2727,76.3528 L33.4047,82.2198 C33.0007,82.6238 32.4477,82.8348 31.8727,82.7918 L25.1087,82.3018 L22.6827,92.5268 C22.4707,93.4268 21.6677,94.0408 20.7707,94.0408" id="Fill-89" fill="#256782"></path>
                <path d="M64.529,60.3475 C61.43,60.3475 58.299,59.8635 55.236,58.8715 C54.203,58.5365 53.636,57.4275 53.971,56.3935 C54.306,55.3605 55.408,54.7965 56.45,55.1285 C65.774,58.1535 75.866,55.7425 82.776,48.8305 C92.876,38.7295 92.876,22.2925 82.776,12.1915 C72.675,2.0905 56.238,2.0905 46.137,12.1915 C39.228,19.1005 36.814,29.1885 39.838,38.5165 C40.173,39.5515 39.606,40.6605 38.573,40.9955 C37.545,41.3275 36.431,40.7635 36.094,39.7315 C32.613,28.9885 35.395,17.3695 43.356,9.4095 C54.989,-2.2245 73.924,-2.2245 85.557,9.4095 C97.193,21.0425 97.193,39.9755 85.557,51.6125 C79.866,57.3025 72.303,60.3475 64.529,60.3475" id="Fill-90" fill="#256782"></path>
            </g>
            <g id="door-locked" transform="translate(161.000000, 825.000000)">
                <path d="M72.1618,91.16 L56.8668,91.16 C55.3878,91.16 54.1878,89.961 54.1878,88.481 L54.1878,78.479 C54.1878,77 55.3878,75.801 56.8668,75.801 L72.1618,75.801 C73.6408,75.801 74.8398,77 74.8398,78.479 L74.8398,88.481 C74.8398,89.961 73.6408,91.16 72.1618,91.16" id="Fill-91" fill="#B0E55C"></path>
                <path d="M51.2366,72.7401 C50.3596,72.7401 49.6446,73.4551 49.6446,74.3341 L49.6446,87.5991 C49.6446,88.4781 50.3596,89.1931 51.2366,89.1931 L71.2796,89.1931 C72.1586,89.1931 72.8736,88.4781 72.8736,87.5991 L72.8736,74.3341 C72.8736,73.4551 72.1586,72.7401 71.2796,72.7401 L51.2366,72.7401 Z M71.2796,93.1281 L51.2366,93.1281 C48.1886,93.1281 45.7106,90.6471 45.7106,87.5991 L45.7106,74.3341 C45.7106,71.2861 48.1886,68.8051 51.2366,68.8051 L71.2796,68.8051 C74.3276,68.8051 76.8076,71.2861 76.8076,74.3341 L76.8076,87.5991 C76.8076,90.6471 74.3276,93.1281 71.2796,93.1281 Z" id="Fill-92" fill="#256782"></path>
                <path d="M69.8811,69.6981 C68.7951,69.6981 67.9141,68.8181 67.9141,67.7311 L67.9141,65.6171 C67.9141,61.9361 64.9211,58.9421 61.2391,58.9421 C57.5591,58.9421 54.5641,61.9361 54.5641,65.6171 L54.5641,67.7311 C54.5641,68.8181 53.6831,69.6981 52.5961,69.6981 C51.5101,69.6981 50.6301,68.8181 50.6301,67.7311 L50.6301,65.6171 C50.6301,59.7671 55.3891,55.0081 61.2381,55.0081 C67.0891,55.0081 71.8481,59.7671 71.8481,65.6171 L71.8481,67.7311 C71.8481,68.8181 70.9681,69.6981 69.8811,69.6981" id="Fill-93" fill="#256782"></path>
                <path d="M61.258,83.6297 C60.172,83.6297 59.291,82.7487 59.291,81.6627 L59.291,80.2707 C59.291,79.1837 60.172,78.3037 61.258,78.3037 C62.344,78.3037 63.225,79.1837 63.225,80.2707 L63.225,81.6627 C63.225,82.7487 62.344,83.6297 61.258,83.6297" id="Fill-94" fill="#256782"></path>
                <path d="M40.1853,93.1277 L2.3823,93.1277 C1.2953,93.1277 0.4143,92.2467 0.4143,91.1597 L0.4143,2.6897 C0.4143,1.6037 1.2953,0.7227 2.3823,0.7227 L74.8403,0.7227 C75.9273,0.7227 76.8083,1.6037 76.8083,2.6897 L76.8083,54.3587 C76.8083,55.4457 75.9273,56.3267 74.8403,56.3267 C73.7543,56.3267 72.8733,55.4457 72.8733,54.3587 L72.8733,4.6567 L4.3493,4.6567 L4.3493,89.1927 L40.1853,89.1927 C41.2713,89.1927 42.1523,90.0737 42.1523,91.1597 C42.1523,92.2467 41.2713,93.1277 40.1853,93.1277" id="Fill-95" fill="#256782"></path>
                <path d="M15.9831,51.3582 C14.8971,51.3582 14.0161,50.4772 14.0161,49.3902 L14.0161,44.1122 C14.0161,43.0252 14.8971,42.1442 15.9831,42.1442 C17.0691,42.1442 17.9501,43.0252 17.9501,44.1122 L17.9501,49.3902 C17.9501,50.4772 17.0691,51.3582 15.9831,51.3582" id="Fill-96" fill="#256782"></path>
            </g>
            <g id="door-locked-2" transform="translate(946.000000, 844.000000)">
                <path d="M66.3176,80.2664 L52.1376,80.2664 C50.5006,80.2664 49.1716,78.9384 49.1716,77.2994 L49.1716,69.2714 C49.1716,67.6324 50.5006,66.3044 52.1376,66.3044 L66.3176,66.3044 C67.9566,66.3044 69.2846,67.6324 69.2846,69.2714 L69.2846,77.2994 C69.2846,78.9384 67.9566,80.2664 66.3176,80.2664" id="Fill-97" fill="#7DD6EA"></path>
                <path d="M46.7991,62.8289 C45.9201,62.8289 45.2051,63.5439 45.2051,64.4209 L45.2051,77.6869 C45.2051,78.5659 45.9201,79.2809 46.7991,79.2809 L66.8411,79.2809 C67.7201,79.2809 68.4341,78.5659 68.4341,77.6869 L68.4341,64.4209 C68.4341,63.5439 67.7201,62.8289 66.8411,62.8289 L46.7991,62.8289 Z M66.8411,83.2149 L46.7991,83.2149 C43.7511,83.2149 41.2711,80.7339 41.2711,77.6869 L41.2711,64.4209 C41.2711,61.3739 43.7511,58.8939 46.7991,58.8939 L66.8411,58.8939 C69.8881,58.8939 72.3681,61.3739 72.3681,64.4209 L72.3681,77.6869 C72.3681,80.7339 69.8881,83.2149 66.8411,83.2149 Z" id="Fill-98" fill="#256782"></path>
                <path d="M65.4436,59.7869 C64.3566,59.7869 63.4766,58.9069 63.4766,57.8199 L63.4766,55.7059 C63.4766,52.0249 60.4816,49.0289 56.7996,49.0289 C53.1196,49.0289 50.1246,52.0249 50.1246,55.7059 L50.1246,57.8199 C50.1246,58.9069 49.2446,59.7869 48.1576,59.7869 C47.0706,59.7869 46.1906,58.9069 46.1906,57.8199 L46.1906,55.7059 C46.1906,49.8549 50.9496,45.0959 56.7996,45.0959 C62.6516,45.0959 67.4106,49.8549 67.4106,55.7059 L67.4106,57.8199 C67.4106,58.9069 66.5306,59.7869 65.4436,59.7869" id="Fill-99" fill="#256782"></path>
                <path d="M56.8206,73.7176 C55.7336,73.7176 54.8536,72.8366 54.8536,71.7496 L54.8536,70.3576 C54.8536,69.2716 55.7336,68.3906 56.8206,68.3906 C57.9076,68.3906 58.7876,69.2716 58.7876,70.3576 L58.7876,71.7496 C58.7876,72.8366 57.9076,73.7176 56.8206,73.7176" id="Fill-100" fill="#256782"></path>
                <path d="M37.304,83.9383 L2.82,83.9383 C1.733,83.9383 0.852,83.0583 0.852,81.9713 L0.852,2.7393 C0.852,1.6523 1.733,0.7713 2.82,0.7713 L70.402,0.7713 C71.488,0.7713 72.368,1.6523 72.368,2.7393 L72.368,44.7323 C72.368,45.8193 71.488,46.7003 70.402,46.7003 C69.315,46.7003 68.434,45.8193 68.434,44.7323 L68.434,4.7063 L4.786,4.7063 L4.786,80.0043 L37.304,80.0043 C38.391,80.0043 39.272,80.8843 39.272,81.9713 C39.272,83.0583 38.391,83.9383 37.304,83.9383" id="Fill-101" fill="#256782"></path>
                <path d="M70.4016,30.2147 L4.4196,30.2147 C3.3326,30.2147 2.4526,29.3337 2.4526,28.2467 C2.4526,27.1607 3.3326,26.2797 4.4196,26.2797 L70.4016,26.2797 C71.4876,26.2797 72.3686,27.1607 72.3686,28.2467 C72.3686,29.3337 71.4876,30.2147 70.4016,30.2147" id="Fill-102" fill="#256782"></path>
                <path d="M29.6643,83.2147 C28.5783,83.2147 27.6973,82.3347 27.6973,81.2477 L27.6973,28.2467 C27.6973,27.1607 28.5783,26.2797 29.6643,26.2797 C30.7513,26.2797 31.6323,27.1607 31.6323,28.2467 L31.6323,81.2477 C31.6323,82.3347 30.7513,83.2147 29.6643,83.2147" id="Fill-103" fill="#256782"></path>
            </g>
            <g id="camera" transform="translate(646.000000, 203.000000)">
                <polygon id="Fill-104" fill="#7DD6EA" points="94.3796 42.2498 32.9996 51.5668 29.5656 28.9448 90.9456 19.6278"></polygon>
                <path d="M21.4031,23.7312 L25.5781,51.2522 L92.0141,41.1692 L87.8371,13.6482 L21.4031,23.7312 Z M23.9291,55.4612 C23.5131,55.4612 23.1031,55.3292 22.7631,55.0782 C22.3431,54.7672 22.0621,54.3052 21.9841,53.7892 L17.2161,22.3772 C17.0541,21.3032 17.7931,20.3002 18.8671,20.1362 L89.1911,9.4632 C90.2651,9.2912 91.2671,10.0382 91.4301,11.1122 L96.2001,42.5232 C96.2771,43.0402 96.1481,43.5652 95.8391,43.9852 C95.5291,44.4052 95.0661,44.6862 94.5501,44.7622 L24.2241,55.4392 C24.1261,55.4532 24.0281,55.4612 23.9291,55.4612 Z" id="Fill-105" fill="#256782"></path>
                <path d="M7.2932,49.0994 C6.3372,49.0994 5.5002,48.4024 5.3512,47.4274 L3.2212,33.3874 C3.1422,32.8704 3.2712,32.3454 3.5802,31.9254 C3.8912,31.5054 4.3532,31.2244 4.8702,31.1464 L14.1102,29.7444 C15.1822,29.5944 16.1872,30.3194 16.3512,31.3954 C16.5142,32.4694 15.7752,33.4734 14.7012,33.6364 L7.4052,34.7434 L8.9452,44.8934 L16.2402,43.7854 C17.3062,43.6374 18.3172,44.3624 18.4812,45.4364 C18.6442,46.5104 17.9052,47.5134 16.8312,47.6764 L7.5912,49.0784 C7.4912,49.0914 7.3922,49.0994 7.2932,49.0994" id="Fill-106" fill="#256782"></path>
                <path d="M1.9651,14.0047 C1.0091,14.0047 0.1721,13.3067 0.0231,12.3327 C-0.1399,11.2587 0.5991,10.2567 1.6731,10.0917 L66.4631,0.2577 C66.8121,0.2087 67.1701,0.2487 67.4951,0.3807 L90.2241,9.5847 C91.2321,9.9917 91.7171,11.1387 91.3091,12.1457 C90.9031,13.1527 89.7551,13.6387 88.7481,13.2307 L66.5201,4.2297 L2.2631,13.9837 C2.1631,13.9967 2.0631,14.0047 1.9651,14.0047" id="Fill-107" fill="#256782"></path>
                <path d="M75.4792,29.6697 C74.5252,29.6697 73.6862,28.9717 73.5382,27.9987 C73.3742,26.9247 74.1132,25.9207 75.1862,25.7587 L76.7412,25.5217 C77.8312,25.3517 78.8192,26.0967 78.9812,27.1687 C79.1462,28.2427 78.4072,29.2467 77.3342,29.4097 L75.7792,29.6467 C75.6772,29.6617 75.5782,29.6697 75.4792,29.6697 M63.0322,31.5587 C62.0782,31.5587 61.2392,30.8597 61.0912,29.8877 C60.9272,28.8137 61.6662,27.8107 62.7392,27.6477 L64.2942,27.4097 C65.3772,27.2427 66.3722,27.9827 66.5352,29.0577 C66.6992,30.1327 65.9602,31.1357 64.8872,31.2987 L63.3322,31.5347 C63.2302,31.5507 63.1312,31.5587 63.0322,31.5587 M50.5842,33.4467 C49.6282,33.4467 48.7912,32.7497 48.6432,31.7747 C48.4792,30.7007 49.2182,29.6987 50.2922,29.5357 L51.8492,29.2997 C52.9202,29.1337 53.9252,29.8737 54.0882,30.9477 C54.2522,32.0227 53.5132,33.0237 52.4392,33.1877 L50.8822,33.4237 C50.7822,33.4397 50.6832,33.4467 50.5842,33.4467 M38.1372,35.3357 C37.1832,35.3357 36.3442,34.6387 36.1962,33.6647 C36.0322,32.5907 36.7712,31.5877 37.8442,31.4247 L39.3992,31.1887 C40.4752,31.0177 41.4772,31.7627 41.6402,32.8357 C41.8042,33.9097 41.0652,34.9127 39.9922,35.0757 L38.4372,35.3127 C38.3352,35.3277 38.2352,35.3357 38.1372,35.3357" id="Fill-108" fill="#256782"></path>
                <path d="M62.7698,77.8983 C62.3578,77.8983 61.9528,77.7693 61.6128,77.5223 C61.1728,77.2023 60.8858,76.7163 60.8178,76.1773 L58.1608,55.0783 C58.0258,54.0013 58.7898,53.0153 59.8668,52.8803 C60.9238,52.7393 61.9278,53.5073 62.0638,54.5863 L64.4598,73.6073 L92.2668,68.3193 C93.3388,68.1073 94.3638,68.8173 94.5648,69.8833 C94.7698,70.9503 94.0688,71.9803 93.0008,72.1823 L63.1368,77.8633 C63.0158,77.8873 62.8928,77.8983 62.7698,77.8983" id="Fill-109" fill="#256782"></path>
                <path d="M93.654,89.6121 C92.568,89.6121 91.687,88.7311 91.687,87.6451 L91.687,59.9561 C91.687,58.8691 92.568,57.9891 93.654,57.9891 C94.74,57.9891 95.621,58.8691 95.621,59.9561 L95.621,87.6451 C95.621,88.7311 94.74,89.6121 93.654,89.6121" id="Fill-110" fill="#256782"></path>
            </g>
            <g id="connection" transform="translate(1732.000000, 144.000000)">
                <path d="M64.0666,90.9544 L18.6116,90.9544 C14.5756,90.9544 11.2726,87.6514 11.2726,83.6154 C11.2726,79.5784 14.5756,76.2754 18.6116,76.2754 L64.0666,76.2754 C68.1036,76.2754 71.4066,79.5784 71.4066,83.6154 C71.4066,87.6514 68.1036,90.9544 64.0666,90.9544" id="Fill-111" fill="#7DD6EA"></path>
                <path d="M14.8391,71.5257 C9.7141,71.5257 5.5441,75.6947 5.5441,80.8197 C5.5441,85.9437 9.7141,90.1137 14.8391,90.1137 L61.3831,90.1137 C66.5071,90.1137 70.6771,85.9437 70.6771,80.8197 C70.6771,75.6947 66.5071,71.5257 61.3831,71.5257 L14.8391,71.5257 Z M61.3831,94.0477 L14.8391,94.0477 C7.5451,94.0477 1.6101,88.1137 1.6101,80.8197 C1.6101,73.5257 7.5451,67.5907 14.8391,67.5907 L61.3831,67.5907 C68.6771,67.5907 74.6101,73.5257 74.6101,80.8197 C74.6101,88.1137 68.6771,94.0477 61.3831,94.0477 Z" id="Fill-112" fill="#256782"></path>
                <path d="M38.1115,71.5257 C37.0245,71.5257 36.1435,70.6447 36.1435,69.5587 L36.1435,33.3757 C36.1435,32.2887 37.0245,31.4077 38.1115,31.4077 C39.1975,31.4077 40.0785,32.2887 40.0785,33.3757 L40.0785,69.5587 C40.0785,70.6447 39.1975,71.5257 38.1115,71.5257" id="Fill-113" fill="#256782"></path>
                <path d="M38.1115,12.222 C35.3895,12.222 33.1745,14.437 33.1745,17.159 C33.1745,19.88 35.3895,22.095 38.1115,22.095 C40.8335,22.095 43.0485,19.88 43.0485,17.159 C43.0485,14.437 40.8335,12.222 38.1115,12.222 M38.1115,26.029 C33.2195,26.029 29.2405,22.05 29.2405,17.159 C29.2405,12.267 33.2195,8.288 38.1115,8.288 C43.0035,8.288 46.9815,12.267 46.9815,17.159 C46.9815,22.05 43.0035,26.029 38.1115,26.029" id="Fill-114" fill="#256782"></path>
                <path d="M19.9319,28.1946 C19.3369,28.1946 18.7499,27.9256 18.3629,27.4156 C13.7849,21.3756 13.7849,12.9396 18.3629,6.9016 C19.0189,6.0366 20.2519,5.8646 21.1189,6.5226 C21.9859,7.1786 22.1549,8.4126 21.4979,9.2776 C17.9819,13.9176 17.9819,20.3986 21.4979,25.0396 C22.1549,25.9046 21.9859,27.1386 21.1189,27.7946 C20.7639,28.0636 20.3459,28.1946 19.9319,28.1946" id="Fill-115" fill="#256782"></path>
                <path d="M6.9817,34.2405 C6.3357,34.2405 5.7047,33.9235 5.3277,33.3395 C-0.8263,23.8125 -0.8263,10.5045 5.3277,0.9775 C5.9177,0.0625 7.1397,-0.1975 8.0457,0.3915 C8.9597,0.9805 9.2217,2.1985 8.6317,3.1105 C3.2917,11.3815 3.2917,22.9355 8.6317,31.2065 C9.2217,32.1175 8.9597,33.3365 8.0457,33.9255 C7.7167,34.1385 7.3467,34.2405 6.9817,34.2405" id="Fill-116" fill="#256782"></path>
                <path d="M56.2903,28.1946 C55.8773,28.1946 55.4593,28.0636 55.1033,27.7946 C54.2383,27.1386 54.0683,25.9056 54.7253,25.0396 C58.2393,20.3986 58.2403,13.9176 54.7253,9.2776 C54.0683,8.4126 54.2373,7.1786 55.1033,6.5226 C55.9723,5.8676 57.2043,6.0376 57.8593,6.9016 C62.4363,12.9396 62.4363,21.3756 57.8593,27.4156 C57.4743,27.9256 56.8853,28.1946 56.2903,28.1946" id="Fill-117" fill="#256782"></path>
                <path d="M69.2395,34.2405 C68.8745,34.2405 68.5035,34.1385 68.1735,33.9255 C67.2615,33.3365 66.9995,32.1175 67.5895,31.2055 C72.9305,22.9355 72.9305,11.3815 67.5895,3.1125 C66.9995,2.1985 67.2615,0.9805 68.1735,0.3915 C69.0875,-0.1975 70.3045,0.0645 70.8935,0.9755 C77.0485,10.5045 77.0485,23.8125 70.8935,33.3415 C70.5165,33.9235 69.8855,34.2405 69.2395,34.2405" id="Fill-118" fill="#256782"></path>
                <path d="M17.3713,82.7874 L15.7983,82.7874 C14.7113,82.7874 13.8313,81.9064 13.8313,80.8204 C13.8313,79.7334 14.7113,78.8534 15.7983,78.8534 L17.3713,78.8534 C18.4583,78.8534 19.3393,79.7334 19.3393,80.8204 C19.3393,81.9064 18.4583,82.7874 17.3713,82.7874 M29.9613,82.7874 L28.3883,82.7874 C27.3013,82.7874 26.4203,81.9064 26.4203,80.8204 C26.4203,79.7334 27.3013,78.8534 28.3883,78.8534 L29.9613,78.8534 C31.0483,78.8534 31.9293,79.7334 31.9293,80.8204 C31.9293,81.9064 31.0483,82.7874 29.9613,82.7874 M42.5513,82.7874 L40.9773,82.7874 C39.8913,82.7874 39.0103,81.9064 39.0103,80.8204 C39.0103,79.7334 39.8913,78.8534 40.9773,78.8534 L42.5513,78.8534 C43.6383,78.8534 44.5183,79.7334 44.5183,80.8204 C44.5183,81.9064 43.6383,82.7874 42.5513,82.7874" id="Fill-119" fill="#256782"></path>
            </g>
            <g id="connectivity" transform="translate(103.000000, 549.000000)">
                <path d="M51.967,46.8338 C51.967,50.3688 49.101,53.2348 45.566,53.2348 C42.029,53.2348 39.163,50.3688 39.163,46.8338 C39.163,43.2978 42.029,40.4318 45.566,40.4318 C49.101,40.4318 51.967,43.2978 51.967,46.8338" id="Fill-126" fill="#7DD6EA"></path>
                <path d="M43.6116,37.2244 C39.3646,37.2244 35.9116,40.6774 35.9116,44.9234 C35.9116,49.1704 39.3646,52.6234 43.6116,52.6234 C47.8556,52.6234 51.3086,49.1704 51.3086,44.9234 C51.3086,40.6774 47.8556,37.2244 43.6116,37.2244 M43.6116,56.5584 C37.1966,56.5584 31.9776,51.3384 31.9776,44.9234 C31.9776,38.5094 37.1966,33.2894 43.6116,33.2894 C50.0256,33.2894 55.2436,38.5094 55.2436,44.9234 C55.2436,51.3384 50.0256,56.5584 43.6116,56.5584" id="Fill-127" fill="#256782"></path>
                <path d="M19.8704,59.5897 C19.2754,59.5897 18.6884,59.3207 18.3014,58.8117 C12.1054,50.6347 12.1054,39.2147 18.3014,31.0367 C18.9544,30.1717 20.1894,29.9997 21.0574,30.6577 C21.9224,31.3147 22.0924,32.5467 21.4354,33.4127 C16.3024,40.1907 16.3024,49.6577 21.4354,56.4357 C22.0924,57.3007 21.9224,58.5337 21.0574,59.1907 C20.7014,59.4597 20.2834,59.5897 19.8704,59.5897" id="Fill-128" fill="#256782"></path>
                <path d="M8.5989,68.0555 C7.9529,68.0555 7.3219,67.7385 6.9459,67.1545 C-1.5081,54.0655 -1.5081,35.7835 6.9459,22.6945 C7.5359,21.7795 8.7569,21.5185 9.6639,22.1085 C10.5779,22.6975 10.8399,23.9155 10.2489,24.8265 C2.6069,36.6605 2.6069,53.1875 10.2489,65.0215 C10.8399,65.9325 10.5779,67.1515 9.6639,67.7405 C9.3349,67.9535 8.9649,68.0555 8.5989,68.0555" id="Fill-129" fill="#256782"></path>
                <path d="M67.3508,59.5897 C66.9368,59.5897 66.5188,59.4597 66.1638,59.1907 C65.2968,58.5337 65.1278,57.3007 65.7848,56.4357 C70.9198,49.6577 70.9198,40.1907 65.7848,33.4127 C65.1278,32.5477 65.2988,31.3147 66.1638,30.6577 C67.0308,30.0017 68.2628,30.1737 68.9198,31.0367 C75.1168,39.2147 75.1168,50.6347 68.9198,58.8117 C68.5328,59.3207 67.9458,59.5897 67.3508,59.5897" id="Fill-130" fill="#256782"></path>
                <path d="M78.6213,68.0555 C78.2563,68.0555 77.8863,67.9535 77.5573,67.7405 C76.6433,67.1515 76.3813,65.9325 76.9713,65.0215 C84.6133,53.1875 84.6133,36.6605 76.9713,24.8265 C76.3813,23.9155 76.6433,22.6975 77.5573,22.1085 C78.4663,21.5185 79.6863,21.7795 80.2753,22.6945 C88.7293,35.7835 88.7293,54.0655 80.2753,67.1545 C79.8983,67.7385 79.2673,68.0555 78.6213,68.0555" id="Fill-131" fill="#256782"></path>
                <path d="M16.1077,13.6053 C15.6257,13.6053 15.1427,13.4293 14.7647,13.0753 C13.9697,12.3333 13.9287,11.0873 14.6707,10.2943 C14.8677,10.0843 15.0697,9.8763 15.2747,9.6723 C16.0527,8.9133 17.2957,8.9233 18.0577,9.6953 C18.8187,10.4693 18.8097,11.7163 18.0357,12.4783 C17.8667,12.6433 17.7047,12.8103 17.5447,12.9813 C17.1577,13.3963 16.6337,13.6053 16.1077,13.6053" id="Fill-132" fill="#256782"></path>
                <path d="M37.0442,4.115 C36.0682,4.115 35.2222,3.389 35.0962,2.395 C34.9592,1.318 35.7232,0.333 36.8002,0.196 C37.3152,0.132 37.8322,0.073 38.3562,0.022 C39.4152,-0.079 40.3992,0.708 40.5052,1.79 C40.6112,2.87 39.8192,3.833 38.7372,3.938 C38.2542,3.986 37.7732,4.038 37.2952,4.099 C37.2102,4.11 37.1272,4.115 37.0442,4.115 M50.5952,4.305 C50.4932,4.305 50.3922,4.298 50.2902,4.283 C49.8142,4.209 49.3342,4.139 48.8522,4.08 C47.7732,3.944 47.0092,2.961 47.1452,1.884 C47.2792,0.803 48.2782,0.044 49.3402,0.177 C49.8622,0.242 50.3792,0.314 50.8932,0.394 C51.9672,0.562 52.7012,1.567 52.5352,2.639 C52.3852,3.611 51.5472,4.305 50.5952,4.305 M25.4292,7.257 C24.6712,7.257 23.9502,6.818 23.6262,6.081 C23.1902,5.087 23.6422,3.927 24.6362,3.488 C25.1162,3.277 25.6062,3.075 26.1022,2.88 C27.1132,2.478 28.2532,2.976 28.6532,3.989 C29.0512,4.999 28.5552,6.142 27.5432,6.54 C27.0962,6.717 26.6532,6.898 26.2192,7.091 C25.9622,7.203 25.6932,7.257 25.4292,7.257 M62.1032,7.822 C61.8142,7.822 61.5202,7.759 61.2432,7.624 C60.8202,7.418 60.3892,7.219 59.9502,7.03 C58.9532,6.598 58.4952,5.441 58.9262,4.444 C59.3562,3.448 60.5102,2.99 61.5122,3.419 C62.0052,3.633 62.4892,3.855 62.9642,4.086 C63.9412,4.56 64.3482,5.738 63.8722,6.716 C63.5332,7.415 62.8322,7.822 62.1032,7.822" id="Fill-133" fill="#256782"></path>
                <path d="M71.1145,14.6443 C70.5445,14.6443 69.9785,14.3983 69.5905,13.9213 C69.4425,13.7423 69.2915,13.5653 69.1355,13.3883 C68.4125,12.5773 68.4845,11.3333 69.2965,10.6113 C70.1055,9.8893 71.3495,9.9603 72.0735,10.7723 C72.2665,10.9893 72.4545,11.2083 72.6355,11.4323 C73.3245,12.2743 73.1985,13.5123 72.3575,14.2003 C71.9915,14.4983 71.5515,14.6443 71.1145,14.6443" id="Fill-134" fill="#256782"></path>
                <path d="M70.5657,80.7401 C70.0567,80.7401 69.5477,80.5441 69.1627,80.1531 C68.4017,79.3791 68.4117,78.1321 69.1857,77.3701 C69.3547,77.2051 69.5157,77.0381 69.6757,76.8671 C70.4187,76.0711 71.6667,76.0331 72.4567,76.7731 C73.2507,77.5151 73.2927,78.7611 72.5497,79.5531 C72.3527,79.7641 72.1517,79.9711 71.9457,80.1761 C71.5617,80.5531 71.0637,80.7401 70.5657,80.7401" id="Fill-135" fill="#256782"></path>
                <path d="M26.4895,86.5926 C26.2295,86.5926 25.9655,86.5396 25.7105,86.4306 C25.2175,86.2176 24.7325,85.9936 24.2585,85.7636 C23.2805,85.2886 22.8745,84.1126 23.3495,83.1346 C23.8225,82.1576 25.0035,81.7476 25.9785,82.2266 C26.4015,82.4326 26.8335,82.6306 27.2715,82.8196 C28.2685,83.2506 28.7265,84.4076 28.2965,85.4056 C27.9755,86.1486 27.2505,86.5926 26.4895,86.5926 M60.3975,87.1056 C59.6145,87.1056 58.8735,86.6336 58.5675,85.8596 C58.1695,84.8496 58.6665,83.7056 59.6775,83.3086 C60.1245,83.1316 60.5665,82.9496 61.0025,82.7576 C61.9945,82.3226 63.1565,82.7716 63.5945,83.7676 C64.0315,84.7616 63.5795,85.9226 62.5855,86.3606 C62.1035,86.5716 61.6155,86.7736 61.1185,86.9686 C60.8825,87.0626 60.6375,87.1056 60.3975,87.1056 M38.1285,89.6876 C38.0455,89.6876 37.9635,89.6826 37.8805,89.6716 C37.3575,89.6066 36.8415,89.5336 36.3285,89.4536 C35.2545,89.2856 34.5185,88.2806 34.6845,87.2086 C34.8505,86.1326 35.8655,85.3996 36.9305,85.5656 C37.4075,85.6396 37.8855,85.7086 38.3695,85.7686 C39.4475,85.9046 40.2125,86.8876 40.0765,87.9646 C39.9525,88.9606 39.1045,89.6876 38.1285,89.6876 M48.6705,89.8346 C47.6705,89.8346 46.8155,89.0756 46.7155,88.0586 C46.6095,86.9786 47.4005,86.0156 48.4825,85.9096 C48.9675,85.8626 49.4485,85.8106 49.9265,85.7486 C51.0125,85.6136 51.9885,86.3736 52.1255,87.4526 C52.2615,88.5296 51.4985,89.5156 50.4215,89.6526 C49.9065,89.7166 49.3875,89.7756 48.8645,89.8256 C48.7995,89.8316 48.7345,89.8346 48.6705,89.8346" id="Fill-136" fill="#256782"></path>
                <path d="M16.6165,79.7352 C16.0725,79.7352 15.5305,79.5102 15.1405,79.0692 C14.9545,78.8562 14.7705,78.6402 14.5905,78.4232 C13.8995,77.5852 14.0175,76.3442 14.8565,75.6532 C15.6945,74.9632 16.9365,75.0832 17.6265,75.9212 C17.7765,76.1052 17.9315,76.2862 18.0925,76.4652 C18.8095,77.2812 18.7325,78.5242 17.9185,79.2432 C17.5455,79.5722 17.0795,79.7352 16.6165,79.7352" id="Fill-137" fill="#256782"></path>
            </g>
            <g id="telephone" transform="translate(397.000000, 645.000000)">
                <path d="M10.4899,21.872 C15.6789,30.438 16.5939,44.625 16.5939,44.625 C16.5939,44.625 24.7479,42.279 25.6199,39.667 C26.4879,37.059 24.1179,26.19 23.1479,23.683 C22.1639,21.177 20.8959,17.414 18.2759,18.386 C15.6409,19.358 10.4899,21.872 10.4899,21.872 M59.0819,85.506 C51.8259,78.593 38.1629,74.661 38.1629,74.661 C38.1629,74.661 42.2039,67.193 44.9419,66.904 C47.6679,66.622 57.7859,71.266 60.0149,72.759 C62.2579,74.245 65.6639,76.296 64.1499,78.651 C62.6359,81.006 59.0819,85.506 59.0819,85.506" id="Fill-1" fill="#EE8B76"></path>
                <g id="Group-32" transform="translate(0.000000, 0.048800)">
                    <path d="M39.3483,10.4751 C39.8563,10.1151 40.3743,9.7701 40.9023,9.4411 C43.1433,8.0421 41.0303,4.6451 38.7853,6.0481 C38.1913,6.4181 37.6083,6.8071 37.0353,7.2121 C36.1343,7.8511 35.9213,9.0991 36.5603,10.0001 C37.1993,10.9001 38.4493,11.1141 39.3483,10.4751" id="Fill-3" fill="#256782"></path>
                    <path d="M62.3717,4.9306 C62.9837,5.0196 63.5977,5.1276 64.2087,5.2536 C66.7957,5.7886 67.6087,1.8706 65.0177,1.3366 C64.3277,1.1936 63.6387,1.0736 62.9477,0.9726 C61.8627,0.8116 60.8397,1.5696 60.6807,2.6636 C60.5217,3.7566 61.2787,4.7716 62.3717,4.9306" id="Fill-5" fill="#256782"></path>
                    <path d="M90.8102,30.8681 C92.0982,30.8681 93.0482,29.6701 92.7612,28.4191 C92.6042,27.7351 92.4262,27.0571 92.2302,26.3881 C91.4832,23.8481 87.6472,24.9811 88.3922,27.5141 C88.8482,29.0621 88.9172,30.8681 90.8102,30.8681" id="Fill-7" fill="#256782"></path>
                    <path d="M50.3268,5.4868 C50.9308,5.3408 51.5408,5.2128 52.1538,5.1028 C54.7528,4.6338 54.0508,0.6988 51.4448,1.1658 C50.7558,1.2898 50.0698,1.4348 49.3898,1.5978 C48.3158,1.8568 47.6548,2.9368 47.9138,4.0108 C48.1678,5.0678 49.2308,5.7468 50.3268,5.4868" id="Fill-9" fill="#256782"></path>
                    <path d="M73.7672,8.8877 C74.3062,9.1997 74.8342,9.5267 75.3522,9.8687 C77.5562,11.3257 79.7642,7.9917 77.5592,6.5327 C76.9752,6.1467 76.3782,5.7777 75.7692,5.4247 C74.8122,4.8727 73.5902,5.1987 73.0372,6.1557 C72.4842,7.1117 72.8112,8.3347 73.7672,8.8877" id="Fill-11" fill="#256782"></path>
                    <path d="M29.3287,20.1025 C30.6857,20.1025 30.9747,19.1465 32.0687,17.6485 C33.6267,15.5145 30.3987,13.1525 28.8387,15.2895 C28.4287,15.8505 28.0317,16.4275 27.6507,17.0175 C26.7897,18.3515 27.7557,20.1025 29.3287,20.1025" id="Fill-13" fill="#256782"></path>
                    <path d="M87.2643,16.0136 C86.8653,15.4386 86.4493,14.8756 86.0173,14.3256 C84.3833,12.2446 81.2403,14.7166 82.8703,16.7946 C84.0183,18.2556 84.3143,19.1556 85.6243,19.1556 C87.2243,19.1556 88.1903,17.3446 87.2643,16.0136" id="Fill-15" fill="#256782"></path>
                    <path d="M86.1344,51.0893 C85.8504,51.6423 85.5484,52.1863 85.2324,52.7213 C83.8804,55.0043 87.3304,57.0293 88.6734,54.7593 C89.0304,54.1563 89.3694,53.5433 89.6914,52.9203 C90.8994,50.5703 87.3474,48.7373 86.1344,51.0893" id="Fill-17" fill="#256782"></path>
                    <path d="M78.6862,60.5717 C78.2172,60.9787 77.7362,61.3717 77.2422,61.7527 C75.7272,62.9187 76.5662,65.3377 78.4622,65.3377 C79.4442,65.3377 80.1012,64.6387 81.3072,63.5927 C82.1412,62.8687 82.2312,61.6057 81.5072,60.7717 C80.7832,59.9367 79.5192,59.8477 78.6862,60.5717" id="Fill-19" fill="#256782"></path>
                    <path d="M89.5348,39.5166 C89.4738,40.1386 89.3968,40.7566 89.3028,41.3696 C88.8928,43.9796 92.8478,44.5996 93.2538,41.9856 C93.3618,41.2946 93.4488,40.5996 93.5148,39.8996 C93.7688,37.2746 89.7888,36.8746 89.5348,39.5166" id="Fill-21" fill="#256782"></path>
                    <path d="M68.15,66.6523 C67.536,66.9013 66.918,67.1453 66.335,67.3693 C64.266,68.1653 64.856,71.2363 67.052,71.2363 C67.622,71.2363 69.079,70.5903 69.648,70.3613 C70.672,69.9473 71.167,68.7813 70.754,67.7573 C70.34,66.7343 69.175,66.2383 68.15,66.6523" id="Fill-23" fill="#256782"></path>
                    <g id="Group-27" transform="translate(0.000000, 16.000000)">
                        <mask id="mask-4" fill="white">
                            <use xlink:href="#path-3"></use>
                        </mask>
                        <g id="Clip-26"></g>
                        <path d="M52.9557,72.0273 C48.6917,73.9623 42.8167,72.7643 36.4117,68.6533 C21.7577,59.2433 -4.5813,23.8763 6.7167,10.6393 C8.2067,9.1103 17.2177,4.1093 19.4557,4.3413 C21.4327,6.4493 24.7397,20.4293 23.7877,22.8163 C22.7467,25.1913 15.0077,25.4223 14.2377,28.5973 C13.2327,32.8543 33.3957,59.6193 37.7467,59.8333 C41.0007,60.0033 43.3857,52.6073 45.9567,52.2613 C48.5047,52.0033 61.2097,59.1553 62.5127,61.5063 C62.1727,63.6823 54.8177,71.0253 52.9557,72.0273 M45.4307,48.2973 C42.5337,48.6823 40.4187,51.6613 38.7187,54.0543 C38.4157,54.4803 38.0487,54.9973 37.7357,55.4003 C31.9397,50.2883 21.8567,36.9463 18.4957,29.8463 C21.2047,28.7663 26.0257,27.6753 27.4517,24.4193 C29.1377,20.5673 25.3087,3.1793 21.4977,0.8733 C17.2967,-1.6737 4.7807,6.7363 3.6937,8.0223 C-6.0773,19.4643 5.6067,40.6563 14.8007,52.6143 C23.8667,64.9043 40.8857,81.8983 54.6057,75.6703 C56.1477,74.9723 67.6777,65.2553 66.4077,60.5313 C65.2887,56.3833 49.4517,47.7593 45.4307,48.2973" id="Fill-25" fill="#256782" mask="url(#mask-4)"></path>
                    </g>
                    <path d="M72.3785,40.3286 L63.2105,40.3286 L72.3785,27.7916 L72.3785,40.3286 Z M79.2895,40.3286 L76.3995,40.3286 L76.3995,24.9066 L69.7535,24.9066 L58.7955,39.9176 L59.1915,44.2776 L72.3785,44.2776 L72.3785,48.9596 L76.3995,48.9596 L76.3995,44.2776 L79.2895,44.2776 L79.2895,40.3286 Z" id="Fill-28" fill="#256782"></path>
                    <path d="M37.1451,31.4648 L41.2021,31.4648 C42.0851,26.5608 52.3201,26.8748 52.3201,32.2348 C52.3201,35.1528 49.0441,35.6818 46.7591,35.6818 C42.2051,35.6818 37.0451,37.2518 37.0451,42.7638 L37.0451,48.9598 L56.4361,48.9598 L56.4361,45.1878 L41.1341,45.1878 C41.1341,42.7968 40.3461,39.3168 46.7591,39.3168 C51.9921,39.3168 56.3681,38.1278 56.3681,32.1288 C56.3681,26.4458 51.1871,24.5538 46.3701,24.5538 C41.8611,24.5538 37.5511,26.5768 37.1451,31.4648" id="Fill-30" fill="#256782"></path>
                </g>
            </g>
            <g id="web-shield" transform="translate(1491.000000, 545.000000)">
                <g id="Group-11">
                    <mask id="mask-6" fill="white">
                        <use xlink:href="#path-5"></use>
                    </mask>
                    <g id="Clip-10"></g>
                    <path d="M32.0002,20.1406 L53.0032,20.1406 C53.0032,4.5296 52.8332,4.8966 53.2712,4.1386 L31.7322,4.1386 C32.1702,4.8966 32.0002,4.5286 32.0002,20.1406 M41.0012,65.1376 L2.0002,65.1376 C0.8962,65.1376 0.0002,64.2426 0.0002,63.1376 L0.0002,2.1386 C0.0002,1.0346 0.8962,0.1386 2.0002,0.1386 L83.9992,0.1386 C85.1042,0.1386 85.9992,1.0346 85.9992,2.1386 L85.9992,27.1416 C85.9992,29.7846 81.9992,29.7876 81.9992,27.1416 L81.9992,4.1386 L56.7352,4.1386 C57.1732,4.8966 57.0032,4.3436 57.0032,22.1406 C57.0032,23.2446 56.1072,24.1406 55.0032,24.1406 L30.0002,24.1406 C28.8962,24.1406 28.0002,23.2446 28.0002,22.1406 L28.0002,5.1386 C28.0002,4.7746 28.0982,4.4326 28.2682,4.1386 L4.0002,4.1386 L4.0002,61.1376 L41.0012,61.1376 C42.1052,61.1376 43.0012,62.0336 43.0012,63.1376 C43.0012,64.2426 42.1052,65.1376 41.0012,65.1376 M69.1542,71.8506 C69.3962,71.9246 71.3612,71.2896 71.6282,71.2106 C83.2542,66.9116 88.7492,53.6566 82.1242,40.4446 L81.7292,39.6546 C76.9282,40.5986 73.5932,40.0936 69.3142,37.2986 C65.0432,40.0816 61.7362,40.6036 56.9012,39.6556 C52.1012,49.2566 53.1032,57.7016 56.8452,63.0926 C60.3752,68.1766 64.4592,70.4546 69.1542,71.8506 M65.6882,74.9896 C51.9092,69.9586 45.1672,54.1176 52.9322,38.6506 C53.8352,36.8426 54.3402,35.0766 56.1792,35.4376 C61.7922,36.5396 63.0982,36.5746 68.2242,33.2356 C69.5842,32.3526 70.6352,33.3836 72.2072,34.4106 C74.4232,35.8686 77.2552,36.4496 80.0122,35.9146 C84.3052,35.0726 83.8722,35.0106 85.6992,38.6516 C90.2652,47.7536 90.0162,58.2436 85.0672,65.3736 C81.6962,70.2406 76.5922,73.8626 72.8252,75.0286 L70.6052,75.6856 C69.4332,76.0346 68.3512,75.9456 65.6882,74.9896" id="Fill-9" fill="#256782" mask="url(#mask-6)"></path>
                </g>
                <path d="M12.0461,52.1406 L10.0631,52.1406 C7.4201,52.1406 7.4171,48.1406 10.0631,48.1406 L12.0461,48.1406 C13.1501,48.1406 14.0461,49.0366 14.0461,50.1406 C14.0461,51.2446 13.1501,52.1406 12.0461,52.1406 M24.9411,52.1406 L22.9561,52.1406 C20.3141,52.1406 20.3101,48.1406 22.9561,48.1406 L24.9411,48.1406 C26.0451,48.1406 26.9411,49.0366 26.9411,50.1406 C26.9411,51.2446 26.0451,52.1406 24.9411,52.1406 M37.8341,52.1406 L35.8511,52.1406 C33.2081,52.1406 33.2041,48.1406 35.8511,48.1406 L37.8341,48.1406 C38.9391,48.1406 39.8341,49.0366 39.8341,50.1406 C39.8341,51.2446 38.9391,52.1406 37.8341,52.1406" id="Fill-12" fill="#256782"></path>
                <path d="M69.0793,71.542 C64.5623,69.893 61.7503,66.407 60.6823,64.869 C57.2703,59.954 57.1273,52.669 60.3183,46.313 L61.1263,44.697 L62.9623,45.058 C64.1553,45.287 65.4103,45.29 66.6063,45.058 C67.7903,44.824 68.9393,44.361 69.9363,43.709 L71.2913,42.827 L72.6423,43.709 C73.6373,44.361 74.7923,44.824 75.9733,45.058 C77.1723,45.29 78.4243,45.287 79.6173,45.058 L81.4533,44.697 L82.2643,46.313 C85.4513,52.669 85.3083,59.954 81.8973,64.869 C80.8313,66.407 78.0173,69.89 73.5033,71.542 L71.8343,72.036 C71.4803,72.142 71.0993,72.142 70.7413,72.036 L69.0793,71.542 Z" id="Fill-1" fill="#81D2E7"></path>
            </g>
            <g id="Page-1" transform="translate(1318.000000, 248.000000)">
                <mask id="mask-8" fill="white">
                    <use xlink:href="#path-7"></use>
                </mask>
                <g id="Clip-2"></g>
                <path d="M38.99,31.5951 L50.385,31.5951 L50.385,23.2051 L38.99,23.2051 L38.99,31.5951 Z M61.828,30.8371 L61.828,10.8871 L35.424,10.8871 C32.733,10.8871 30.551,13.0701 30.551,15.7611 L30.551,63.4641 L61.828,63.4641 L61.828,56.5341 C60.263,55.9571 59.19,54.4411 59.112,52.6991 C59.035,50.9761 60.268,49.4661 61.828,48.8781 L61.828,47.9191 C61.762,47.9231 61.698,47.9401 61.631,47.9401 L61.435,47.9401 C59.141,47.9401 57.441,46.0651 57.342,43.8471 C57.243,41.6361 59.294,39.7551 61.435,39.7551 L61.631,39.7551 C61.7,39.7551 61.762,39.7711 61.828,39.7741 L61.828,39.4381 C59.89,39.1861 58.312,37.3351 58.326,35.3881 C58.329,34.8421 58.378,34.2931 58.514,33.7621 C58.922,32.1741 60.29,31.1301 61.828,30.8371 Z" id="Fill-1" fill="#EF8975" mask="url(#mask-8)"></path>
                <path d="M36.7704,21.8045 L36.6844,29.5425 L48.3324,29.6285 C48.3774,29.6285 48.4174,29.5885 48.4174,29.5425 L48.4174,21.8905 L36.7704,21.8045 Z M48.3324,33.5625 L36.7704,33.5625 C34.5544,33.5625 32.7494,31.7585 32.7494,29.5425 L32.7494,21.8905 C32.7494,19.6745 34.5544,17.8695 36.7704,17.8695 L48.3324,17.8695 C50.5474,17.8695 52.3524,19.6745 52.3524,21.8905 L52.3524,29.5425 C52.3524,31.7585 50.5474,33.5625 48.3324,33.5625 Z" id="Fill-3" fill="#256782" mask="url(#mask-8)"></path>
                <path d="M47.5248,19.41 C46.4388,19.41 45.5578,18.529 45.5578,17.443 L45.5578,16.222 C45.5578,14.558 44.2038,13.204 42.5398,13.204 C40.8748,13.204 39.5208,14.558 39.5208,16.222 L39.5208,17.443 C39.5208,18.529 38.6408,19.41 37.5538,19.41 C36.4678,19.41 35.5868,18.529 35.5868,17.443 L35.5868,16.222 C35.5868,12.389 38.7048,9.27 42.5398,9.27 C46.3738,9.27 49.4918,12.389 49.4918,16.222 L49.4918,17.443 C49.4918,18.529 48.6118,19.41 47.5248,19.41" id="Fill-4" fill="#256782" mask="url(#mask-8)"></path>
                <path d="M56.4169,76.9862 L28.6849,76.9862 C24.0579,76.9862 20.2919,73.2202 20.2919,68.5932 L20.2919,8.3922 C20.2919,3.7652 24.0579,0.0002 28.6849,0.0002 L56.4169,0.0002 C61.0439,0.0002 64.8099,3.7652 64.8099,8.3922 L64.8099,28.9262 C64.8099,30.0122 63.9289,30.8932 62.8429,30.8932 C61.7559,30.8932 60.8749,30.0122 60.8749,28.9262 L60.8749,8.3922 C60.8749,5.9332 58.8759,3.9342 56.4169,3.9342 L28.6849,3.9342 C26.2259,3.9342 24.2269,5.9332 24.2269,8.3922 L24.2269,68.5932 C24.2269,71.0522 26.2259,73.0512 28.6849,73.0512 L56.4169,73.0512 C58.8759,73.0512 60.8749,71.0522 60.8749,68.5932 L60.8749,57.5842 C60.8749,56.4972 61.7559,55.6162 62.8429,55.6162 C63.9289,55.6162 64.8099,56.4972 64.8099,57.5842 L64.8099,68.5932 C64.8099,73.2202 61.0439,76.9862 56.4169,76.9862" id="Fill-5" fill="#256782" mask="url(#mask-8)"></path>
                <path d="M33.2465,93.0428 C32.6365,93.0428 32.0355,92.7598 31.6495,92.2288 C31.0135,91.3478 31.2115,90.1168 32.0925,89.4798 C33.3585,88.5658 35.1755,87.6558 37.2775,86.6028 C42.2685,84.0988 49.1035,80.6718 52.4595,75.0768 C53.0185,74.1468 54.2245,73.8448 55.1605,74.4018 C56.0915,74.9618 56.3925,76.1698 55.8345,77.1028 C51.8895,83.6758 44.4635,87.3988 39.0415,90.1178 C37.0915,91.0958 35.4055,91.9408 34.3975,92.6708 C34.0485,92.9218 33.6455,93.0428 33.2465,93.0428" id="Fill-6" fill="#256782" mask="url(#mask-8)"></path>
                <path d="M11.331,70.5604 C11.125,70.5604 10.914,70.5284 10.707,70.4584 C9.677,70.1154 9.121,69.0004 9.465,67.9694 C10.185,65.8184 8.022,59.9494 6.86,56.7944 C6.432,55.6294 6.064,54.6264 5.848,53.9074 C4.641,49.8824 6.449,45.3964 8.543,40.2024 C10.544,35.2394 12.811,29.6154 12.874,23.3394 C12.913,19.5114 15.571,17.3584 18.176,17.2074 C20.738,17.0804 23.676,18.8504 24.211,23.1154 C24.347,24.1934 23.583,25.1764 22.504,25.3114 C21.425,25.4514 20.443,24.6834 20.308,23.6044 C20.114,22.0484 19.343,21.0974 18.402,21.1354 C17.62,21.1804 16.824,21.8924 16.809,23.3794 C16.738,30.3974 14.323,36.3874 12.192,41.6724 C10.375,46.1804 8.806,50.0744 9.616,52.7764 C9.814,53.4384 10.157,54.3614 10.552,55.4354 C12.556,60.8734 14.265,66.0194 13.197,69.2174 C12.922,70.0404 12.155,70.5604 11.331,70.5604" id="Fill-7" fill="#256782" mask="url(#mask-8)"></path>
                <path d="M68.9037,34.8494 L68.9197,34.8494 L68.9037,34.8494 Z M66.7937,29.5684 C66.4337,29.5684 66.0697,29.6664 65.7437,29.8744 L61.4367,32.6104 C60.9967,32.8894 60.6907,33.3264 60.5757,33.8404 C60.4617,34.3564 60.5507,34.8794 60.8297,35.3194 C61.1087,35.7574 61.5457,36.0634 62.0617,36.1784 C62.5767,36.2934 63.1007,36.2024 63.5407,35.9244 L67.8497,33.1894 C68.7627,32.6084 69.0347,31.3924 68.4537,30.4784 C68.0797,29.8894 67.4437,29.5684 66.7937,29.5684 Z M62.5077,40.1614 C62.0737,40.1614 61.6377,40.1144 61.2047,40.0174 C59.6627,39.6734 58.3517,38.7534 57.5097,37.4274 C56.6657,36.1014 56.3927,34.5234 56.7367,32.9834 C57.0807,31.4424 58.0017,30.1294 59.3297,29.2884 L63.6357,26.5534 C66.3787,24.8094 70.0317,25.6244 71.7747,28.3704 C73.5177,31.1154 72.7027,34.7664 69.9577,36.5084 L69.9577,36.5104 L65.6487,39.2454 C64.6957,39.8504 63.6127,40.1614 62.5077,40.1614 Z" id="Fill-8" fill="#256782" mask="url(#mask-8)"></path>
                <path d="M65.495,40.5311 C65.303,40.5311 65.109,40.5601 64.92,40.6201 L59.992,42.1761 C58.977,42.4951 58.412,43.5831 58.733,44.5981 C58.887,45.0861 59.225,45.4851 59.684,45.7251 C60.144,45.9641 60.663,46.0111 61.155,45.8571 L66.084,44.3021 C67.098,43.9821 67.663,42.8941 67.342,41.8791 C67.189,41.3911 66.85,40.9921 66.391,40.7521 C66.108,40.6041 65.803,40.5311 65.495,40.5311 Z M66.675,46.1781 L66.691,46.1781 L66.675,46.1781 Z M60.577,49.8831 C58.086,49.8831 55.77,48.2811 54.98,45.7821 C54.007,42.6981 55.724,39.3961 58.808,38.4231 L63.737,36.8671 C66.818,35.8891 70.121,37.6121 71.095,40.6951 C72.068,43.7801 70.351,47.0811 67.267,48.0551 L62.338,49.6101 C61.754,49.7951 61.16,49.8831 60.577,49.8831 Z" id="Fill-9" fill="#256782" mask="url(#mask-8)"></path>
                <path d="M64.5209,50.7567 C64.5069,50.7567 64.4929,50.7567 64.4789,50.7587 L62.5889,50.8017 C62.1059,50.8127 61.6549,51.0117 61.3179,51.3647 C60.9799,51.7187 60.7999,52.1787 60.8109,52.6607 C60.8219,53.1427 61.0209,53.5937 61.3749,53.9307 C61.7289,54.2687 62.1649,54.5067 62.6699,54.4377 L64.5629,54.3967 C65.5639,54.3727 66.3619,53.5387 66.3389,52.5367 C66.3279,52.0557 66.1279,51.6037 65.7749,51.2657 C65.4319,50.9367 64.9879,50.7567 64.5209,50.7567 Z M64.6049,56.3627 L64.6209,56.3627 L64.6049,56.3627 Z M62.6269,58.3737 C59.5139,58.3737 56.9459,55.8757 56.8759,52.7467 C56.8429,51.2147 57.4099,49.7577 58.4729,48.6467 C59.5389,47.5327 60.9679,46.9017 62.5009,46.8667 L64.3919,46.8237 C65.9369,46.8587 67.3819,47.3577 68.4949,48.4227 C69.6079,49.4867 70.2389,50.9187 70.2729,52.4497 C70.3419,55.6187 67.8199,58.2567 64.6499,58.3307 L64.6479,58.3307 L62.7559,58.3717 C62.7129,58.3717 62.6699,58.3737 62.6269,58.3737 Z" id="Fill-10" fill="#256782" mask="url(#mask-8)"></path>
                <path d="M64.8095,14.7625 L64.8095,19.6265 L68.2725,17.4275 C68.7315,17.1375 69.0515,16.6795 69.1715,16.1415 C69.2905,15.6035 69.1975,15.0545 68.9055,14.5965 L68.9035,14.5955 C68.6135,14.1355 68.1555,13.8165 67.6175,13.6965 C67.0805,13.5755 66.5305,13.6695 66.0715,13.9615 L64.8095,14.7625 Z M62.8425,25.1735 C62.5165,25.1735 62.1905,25.0915 61.8945,24.9305 C61.2665,24.5845 60.8755,23.9235 60.8755,23.2055 L60.8755,13.6805 C60.8755,13.0075 61.2195,12.3805 61.7885,12.0195 L63.9625,10.6395 C65.3095,9.7875 66.9125,9.5095 68.4755,9.8575 C70.0395,10.2055 71.3705,11.1385 72.2255,12.4855 C73.0805,13.8315 73.3605,15.4345 73.0105,16.9985 C72.6615,18.5635 71.7265,19.8955 70.3805,20.7495 L63.8965,24.8665 C63.5755,25.0705 63.2095,25.1735 62.8425,25.1735 Z" id="Fill-11" fill="#256782" mask="url(#mask-8)"></path>
                <path d="M30.4218,99.9832 C29.8928,99.9832 29.3658,99.7712 28.9788,99.3532 C28.2408,98.5552 28.2868,97.3122 29.0848,96.5732 L32.0388,93.8362 L10.7788,70.8902 L3.2738,77.5602 C2.4608,78.2782 1.2188,78.2092 0.4968,77.3962 C-0.2242,76.5852 -0.1522,75.3412 0.6608,74.6192 L9.6068,66.6702 C10.4038,65.9622 11.6278,66.0192 12.3558,66.8042 L36.2618,92.6042 C36.9998,93.4022 36.9528,94.6452 36.1558,95.3842 L31.7588,99.4592 C31.3798,99.8092 30.9008,99.9832 30.4218,99.9832" id="Fill-12" fill="#256782" mask="url(#mask-8)"></path>
                <path d="M55.7211,65.4305 L22.2601,65.4305 C21.1731,65.4305 20.2921,64.5495 20.2921,63.4635 C20.2921,62.3765 21.1731,61.4955 22.2601,61.4955 L55.7211,61.4955 C56.8071,61.4955 57.6881,62.3765 57.6881,63.4635 C57.6881,64.5495 56.8071,65.4305 55.7211,65.4305" id="Fill-13" fill="#256782" mask="url(#mask-8)"></path>
            </g>
            <g id="Page-1" transform="translate(1770.000000, 496.000000)">
                <polygon id="Fill-1" fill="#B0E55C" points="23.743 78.217 34.705 78.217 34.705 67.256 23.743 67.256"></polygon>
                <polygon id="Fill-2" fill="#B0E55C" points="49.021 95.721 56.162 95.721 56.162 73.485 49.021 73.485"></polygon>
                <g id="Group-20" transform="translate(0.000000, 0.688000)">
                    <path d="M67.1151,96.9998 L9.0791,96.9998 C7.9931,96.9998 7.1121,96.1198 7.1121,95.0328 L7.1121,62.9128 C7.1121,61.8268 7.9931,60.9458 9.0791,60.9458 C10.1661,60.9458 11.0471,61.8268 11.0471,62.9128 L11.0471,93.0658 L67.1151,93.0658 C68.2011,93.0658 69.0821,93.9458 69.0821,95.0328 C69.0821,96.1198 68.2011,96.9998 67.1151,96.9998" id="Fill-3" fill="#256782"></path>
                    <path d="M67.1151,89.5462 C66.0281,89.5462 65.1471,88.6662 65.1471,87.5792 L65.1471,51.9742 C65.1471,50.8872 66.0281,50.0062 67.1151,50.0062 C68.2011,50.0062 69.0821,50.8872 69.0821,51.9742 L69.0821,87.5792 C69.0821,88.6662 68.2011,89.5462 67.1151,89.5462" id="Fill-5" fill="#256782"></path>
                    <path d="M1.9686,59.8162 C1.4146,59.8162 0.8666,59.5862 0.4776,59.1342 C-0.2324,58.3122 -0.1394,57.0702 0.6826,56.3602 L36.8116,25.1762 C37.6306,24.4632 38.8756,24.5572 39.5856,25.3802 C40.2956,26.2032 40.2046,27.4442 39.3806,28.1542 L3.2516,59.3382 C2.8816,59.6592 2.4236,59.8162 1.9686,59.8162" id="Fill-7" fill="#256782"></path>
                    <path d="M74.2245,59.8162 C73.7695,59.8162 73.3125,59.6592 72.9415,59.3382 L36.8115,28.1542 C35.9885,27.4442 35.8975,26.2032 36.6075,25.3802 C37.3155,24.5572 38.5555,24.4642 39.3805,25.1762 L75.5105,56.3602 C76.3325,57.0702 76.4245,58.3122 75.7145,59.1342 C75.3265,59.5862 74.7775,59.8162 74.2245,59.8162" id="Fill-9" fill="#256782"></path>
                    <path d="M18.3836,45.6482 C17.2966,45.6482 16.4156,44.7682 16.4156,43.6812 L16.4156,32.2822 C16.4156,31.1962 17.2966,30.3152 18.3836,30.3152 C19.4696,30.3152 20.3506,31.1962 20.3506,32.2822 L20.3506,43.6812 C20.3506,44.7682 19.4696,45.6482 18.3836,45.6482" id="Fill-11" fill="#256782"></path>
                    <path d="M67.1151,53.9412 L9.0791,53.9412 C7.9931,53.9412 7.1121,53.0602 7.1121,51.9742 C7.1121,50.8872 7.9931,50.0062 9.0791,50.0062 L67.1151,50.0062 C68.2011,50.0062 69.0821,50.8872 69.0821,51.9742 C69.0821,53.0602 68.2011,53.9412 67.1151,53.9412" id="Fill-13" fill="#256782"></path>
                    <mask id="mask-10" fill="white">
                        <use xlink:href="#path-9"></use>
                    </mask>
                    <g id="Clip-16"></g>
                    <path d="M21.61,75.916 L33.337,75.916 L33.337,64.19 L21.61,64.19 L21.61,75.916 Z M35.304,79.85 L19.643,79.85 C18.557,79.85 17.677,78.97 17.677,77.883 L17.677,62.223 C17.677,61.137 18.557,60.256 19.643,60.256 L35.304,60.256 C36.39,60.256 37.271,61.137 37.271,62.223 L37.271,77.883 C37.271,78.97 36.39,79.85 35.304,79.85 Z" id="Fill-15" fill="#256782" mask="url(#mask-10)"></path>
                    <path d="M47.6541,19.2024 C47.2401,19.2024 46.8221,19.0724 46.4671,18.8034 C41.6331,15.1434 34.8881,15.1464 30.0581,18.8034 C29.1951,19.4594 27.9581,19.2884 27.3031,18.4234 C26.6471,17.5564 26.8171,16.3244 27.6821,15.6674 C33.9151,10.9464 42.6141,10.9464 48.8431,15.6674 C49.7091,16.3244 49.8791,17.5564 49.2221,18.4234 C48.8371,18.9334 48.2491,19.2024 47.6541,19.2024" id="Fill-17" fill="#256782" mask="url(#mask-10)"></path>
                    <path d="M53.9149,8.7014 C53.5489,8.7014 53.1789,8.5994 52.8499,8.3864 C44.2609,2.8404 32.2659,2.8414 23.6769,8.3864 C22.7689,8.9774 21.5499,8.7164 20.9579,7.8004 C20.3669,6.8894 20.6299,5.6704 21.5429,5.0824 C31.3849,-1.2786 45.1389,-1.2776 54.9829,5.0824 C55.8959,5.6704 56.1589,6.8894 55.5679,7.8004 C55.1919,8.3854 54.5609,8.7014 53.9149,8.7014" id="Fill-18" fill="#256782" mask="url(#mask-10)"></path>
                    <path d="M46.79,93.066 L54.194,93.066 L54.194,70.442 L46.79,70.442 L46.79,93.066 Z M56.162,97 L44.823,97 C43.736,97 42.856,96.119 42.856,95.033 L42.856,68.475 C42.856,67.388 43.736,66.508 44.823,66.508 L56.162,66.508 C57.248,66.508 58.129,67.388 58.129,68.475 L58.129,95.033 C58.129,96.119 57.248,97 56.162,97 Z" id="Fill-19" fill="#256782" mask="url(#mask-10)"></path>
                </g>
            </g>
            <g id="Page-1" transform="translate(494.000000, 872.000000)">
                <polygon id="Fill-1" fill="#7DD6EA" points="52.735 80.1485 91.281 80.1485 91.281 25.7925 52.735 25.7925"></polygon>
                <g id="Group-20" transform="translate(0.000000, 0.115500)">
                    <path d="M8.9367,75.9352 C7.8507,75.9352 6.9697,75.0552 6.9697,73.9682 L6.9697,40.3112 C6.9697,39.2242 7.8507,38.3442 8.9367,38.3442 C10.0227,38.3442 10.9037,39.2242 10.9037,40.3112 L10.9037,73.9682 C10.9037,75.0552 10.0227,75.9352 8.9367,75.9352" id="Fill-2" fill="#256782"></path>
                    <path d="M41.6896,41.5816 L4.7546,41.5816 C4.0936,41.5816 3.4766,41.2496 3.1136,40.6976 C2.7496,40.1446 2.6866,39.4476 2.9456,38.8396 L9.5096,23.5086 C9.8206,22.7846 10.5316,22.3156 11.3186,22.3156 L41.6896,22.3156 C42.7756,22.3156 43.6566,23.1956 43.6566,24.2826 C43.6566,25.3696 42.7756,26.2496 41.6896,26.2496 L12.6156,26.2496 L7.7366,37.6466 L41.6896,37.6466 C42.7756,37.6466 43.6566,38.5276 43.6566,39.6136 C43.6566,40.7006 42.7756,41.5816 41.6896,41.5816" id="Fill-4" fill="#256782"></path>
                    <path d="M99.0256,81.9996 L1.9666,81.9996 C0.8806,81.9996 0.0006,81.1196 0.0006,80.0326 C0.0006,78.9456 0.8806,78.0656 1.9666,78.0656 L99.0256,78.0656 C100.1116,78.0656 100.9926,78.9456 100.9926,80.0326 C100.9926,81.1196 100.1116,81.9996 99.0256,81.9996" id="Fill-6" fill="#256782"></path>
                    <path d="M92.5617,81.9996 L42.3877,81.9996 C41.3007,81.9996 40.4197,81.1196 40.4197,80.0326 L40.4197,15.2246 C40.4197,14.1376 41.3007,13.2566 42.3877,13.2566 C43.4737,13.2566 44.3547,14.1376 44.3547,15.2246 L44.3547,78.0656 L90.5947,78.0656 L90.5947,15.2246 C90.5947,14.1376 91.4757,13.2566 92.5617,13.2566 C93.6477,13.2566 94.5287,14.1376 94.5287,15.2246 L94.5287,80.0326 C94.5287,81.1196 93.6477,81.9996 92.5617,81.9996" id="Fill-8" fill="#256782"></path>
                    <mask id="mask-12" fill="white">
                        <use xlink:href="#path-11"></use>
                    </mask>
                    <g id="Clip-11"></g>
                    <path d="M40.844,12.56 L94.103,12.56 L94.103,4.819 L40.844,4.819 L40.844,12.56 Z M96.07,16.494 L38.877,16.494 C37.791,16.494 36.91,15.614 36.91,14.527 L36.91,2.852 C36.91,1.765 37.791,0.884 38.877,0.884 L96.07,0.884 C97.157,0.884 98.037,1.765 98.037,2.852 L98.037,14.527 C98.037,15.614 97.157,16.494 96.07,16.494 Z" id="Fill-10" fill="#256782" mask="url(#mask-12)"></path>
                    <path d="M82.2126,69.4566 L52.7346,69.4566 C51.6486,69.4566 50.7676,68.5756 50.7676,67.4886 C50.7676,66.4026 51.6486,65.5216 52.7346,65.5216 L82.2126,65.5216 C83.2996,65.5216 84.1796,66.4026 84.1796,67.4886 C84.1796,68.5756 83.2996,69.4566 82.2126,69.4566" id="Fill-12" fill="#256782" mask="url(#mask-12)"></path>
                    <path d="M82.2126,55.5191 L52.7346,55.5191 C51.6486,55.5191 50.7676,54.6381 50.7676,53.5511 C50.7676,52.4651 51.6486,51.5841 52.7346,51.5841 L82.2126,51.5841 C83.2996,51.5841 84.1796,52.4651 84.1796,53.5511 C84.1796,54.6381 83.2996,55.5191 82.2126,55.5191" id="Fill-13" fill="#256782" mask="url(#mask-12)"></path>
                    <path d="M82.2126,41.5816 L52.7346,41.5816 C51.6486,41.5816 50.7676,40.7006 50.7676,39.6136 C50.7676,38.5276 51.6486,37.6466 52.7346,37.6466 L82.2126,37.6466 C83.2996,37.6466 84.1796,38.5276 84.1796,39.6136 C84.1796,40.7006 83.2996,41.5816 82.2126,41.5816" id="Fill-14" fill="#256782" mask="url(#mask-12)"></path>
                    <path d="M82.2126,27.6441 L52.7346,27.6441 C51.6486,27.6441 50.7676,26.7631 50.7676,25.6761 C50.7676,24.5901 51.6486,23.7091 52.7346,23.7091 L82.2126,23.7091 C83.2996,23.7091 84.1796,24.5901 84.1796,25.6761 C84.1796,26.7631 83.2996,27.6441 82.2126,27.6441" id="Fill-15" fill="#256782" mask="url(#mask-12)"></path>
                    <path d="M29.527,56.0807 C28.441,56.0807 27.56,55.1997 27.56,54.1137 L27.56,48.8087 C27.56,47.7217 28.441,46.8417 29.527,46.8417 C30.614,46.8417 31.494,47.7217 31.494,48.8087 L31.494,54.1137 C31.494,55.1997 30.614,56.0807 29.527,56.0807" id="Fill-16" fill="#256782" mask="url(#mask-12)"></path>
                    <path d="M18.8278,56.0807 C17.7418,56.0807 16.8608,55.1997 16.8608,54.1137 L16.8608,48.8087 C16.8608,47.7217 17.7418,46.8417 18.8278,46.8417 C19.9138,46.8417 20.7948,47.7217 20.7948,48.8087 L20.7948,54.1137 C20.7948,55.1997 19.9138,56.0807 18.8278,56.0807" id="Fill-17" fill="#256782" mask="url(#mask-12)"></path>
                    <path d="M29.527,71.4117 C28.441,71.4117 27.56,70.5317 27.56,69.4447 L27.56,64.1397 C27.56,63.0537 28.441,62.1727 29.527,62.1727 C30.614,62.1727 31.494,63.0537 31.494,64.1397 L31.494,69.4447 C31.494,70.5317 30.614,71.4117 29.527,71.4117" id="Fill-18" fill="#256782" mask="url(#mask-12)"></path>
                    <path d="M18.8278,71.4117 C17.7418,71.4117 16.8608,70.5317 16.8608,69.4447 L16.8608,64.1397 C16.8608,63.0537 17.7418,62.1727 18.8278,62.1727 C19.9138,62.1727 20.7948,63.0537 20.7948,64.1397 L20.7948,69.4447 C20.7948,70.5317 19.9138,71.4117 18.8278,71.4117" id="Fill-19" fill="#256782" mask="url(#mask-12)"></path>
                </g>
            </g>
        </g>
    </g>
</svg>