<?xml version="1.0" encoding="UTF-8"?>
<svg width="57px" height="44px" viewBox="0 0 57 44" version="1.1" xmlns="http://www.w3.org/2000/svg" xmlns:xlink="http://www.w3.org/1999/xlink">
    <!-- Generator: Sketch 48.1 (47250) - http://www.bohemiancoding.com/sketch -->
    <title>screen</title>
    <desc>Created with Sketch.</desc>
    <defs>
        <path d="M17.852229,33.7953562 C18.2932068,32.8038083 19.5237784,32 20.6189926,32 L32.0999312,32 C33.1869948,32 34.4223858,32.7963181 34.8666949,33.7953562 L36.8276676,38.2046438 C37.2686454,39.1961917 36.7427952,40 35.6658616,40 L17.0530622,40 C15.9704367,40 15.4469472,39.2036819 15.8912563,38.2046438 L17.852229,33.7953562 Z" id="path-1"></path>
        <path d="M22.0744111,29.9161993 C22.2972188,28.8579117 23.3582194,28 24.4337257,28 L27.8205349,28 C28.9007408,28 29.9566689,28.8561401 30.1798495,29.9161993 L31.0572795,34.0838007 C31.2800872,35.1420883 30.5877703,36 29.5041876,36 L22.7500731,36 C21.6695164,36 20.9738005,35.1438599 21.1969811,34.0838007 L22.0744111,29.9161993 Z" id="path-2"></path>
        <rect id="path-3" x="0" y="0" width="52" height="32.5714286" rx="1.30909091"></rect>
    </defs>
    <g id="Page-1" stroke="none" stroke-width="1" fill="none" fill-rule="evenodd">
        <g id="Rectangle-30-+-Rectangle-29" transform="translate(2.224719, 2.023256)">
            <g id="Rectangle-30" stroke-linecap="round">
                <use fill="#F2F9FF" fill-rule="evenodd" xlink:href="#path-1"></use>
                <path stroke="#008AFF" stroke-width="1.4025974" d="M17.2114437,33.5103753 C17.7661215,32.2631707 19.2494087,31.2987013 20.6189926,31.2987013 L32.0999312,31.2987013 C33.4665113,31.2987013 34.9515579,32.2603724 35.5074802,33.5103753 L37.4684529,37.919663 C38.1148487,39.3730975 37.2524382,40.7012987 35.6658616,40.7012987 L17.0530622,40.7012987 C15.4601791,40.7012987 14.6009928,39.3800282 15.250471,37.919663 L17.2114437,33.5103753 Z"></path>
                <path stroke="#DCEFFE" stroke-width="1.30909091" d="M18.4502953,34.0613383 L16.4893226,38.470626 C16.2387291,39.0340907 16.4412005,39.3454545 17.0530622,39.3454545 L35.6658616,39.3454545 C36.2709291,39.3454545 36.4773107,39.0276056 36.2296013,38.470626 L34.2686286,34.0613383 C33.9307163,33.3015354 32.9316117,32.6545455 32.0999312,32.6545455 L20.6189926,32.6545455 C19.7852991,32.6545455 18.7873672,33.3034251 18.4502953,34.0613383 Z"></path>
            </g>
            <g id="Rectangle-30-Copy" stroke-linecap="round" transform="translate(26.127051, 32.000000) rotate(-180.000000) translate(-26.127051, -32.000000) ">
                <use fill="#F2F9FF" fill-rule="evenodd" xlink:href="#path-2"></use>
                <path stroke="#DCEFFE" stroke-width="1.4025974" d="M21.3881568,29.7717181 C21.6789646,28.3904446 23.0250196,27.2987013 24.4337257,27.2987013 L27.8205349,27.2987013 C29.2330634,27.2987013 30.5747426,28.3878158 30.8661039,29.7717181 L31.7435339,33.9393194 C32.0582451,35.4341291 31.0325781,36.7012987 29.5041876,36.7012987 L22.7500731,36.7012987 C21.2233964,36.7012987 20.1959135,35.4346136 20.5107268,33.9393194 L21.3881568,29.7717181 Z"></path>
                <path stroke="#008AFF" stroke-width="1.30909091" d="M22.7149152,30.0510485 L21.8374852,34.2186498 C21.7000774,34.8713068 22.0846866,35.3454545 22.7500731,35.3454545 L29.5041876,35.3454545 C30.1705957,35.3454545 30.5542235,34.871498 30.4167755,34.2186498 L29.5393454,30.0510485 C29.3800491,29.2944258 28.5917811,28.6545455 27.8205349,28.6545455 L24.4337257,28.6545455 C23.6660679,28.6545455 22.8736099,29.2972835 22.7149152,30.0510485 Z"></path>
            </g>
            <g id="Rectangle-29" stroke-linecap="round">
                <use fill="#FFFFFF" fill-rule="evenodd" xlink:href="#path-3"></use>
                <rect stroke="#008AFF" stroke-width="1.96363636" x="-0.981818182" y="-0.981818182" width="53.9636364" height="34.5350649" rx="1.30909091"></rect>
                <rect stroke="#DCEFFE" stroke-width="1.30909091" x="0.654545455" y="0.654545455" width="50.6909091" height="31.2623377" rx="1.30909091"></rect>
            </g>
            <path d="M23.0036341,13.8008889 L26.6873355,10.1746007 C26.927098,9.93857507 26.927098,9.55590195 26.6873355,9.31987635 C26.447573,9.08385074 26.0588412,9.08385074 25.8190788,9.31987635 L22.1353774,12.9461645 C21.8956149,13.1821902 21.8956149,13.5648633 22.1353774,13.8008889 C22.3751399,14.0369145 22.7638717,14.0369145 23.0036341,13.8008889" id="Line-Copy-24" fill="#DCEFFE" fill-rule="evenodd"></path>
            <path d="M27.6258564,12.8013236 L30.2941669,10.1746007 C30.5339294,9.93857508 30.5339294,9.55590196 30.2941669,9.31987635 C30.0544044,9.08385074 29.6656726,9.08385074 29.4259102,9.31987634 L26.7575996,11.9465992 C26.5178372,12.1826248 26.5178372,12.565298 26.7575996,12.8013236 C26.9973621,13.0373492 27.3860939,13.0373492 27.6258564,12.8013236" id="Line-Copy-21" fill="#DCEFFE" fill-rule="evenodd"></path>
            <path d="M22.4258564,17.9441807 L25.0941669,15.3174578 C25.3339294,15.0814322 25.3339294,14.6987591 25.0941669,14.4627335 C24.8544044,14.2267079 24.4656726,14.2267079 24.2259102,14.4627335 L21.5575996,17.0894564 C21.3178372,17.325482 21.3178372,17.7081551 21.5575996,17.9441807 C21.7973621,18.1802063 22.1860939,18.1802063 22.4258564,17.9441807" id="Line-Copy-22" fill="#DCEFFE" fill-rule="evenodd"></path>
            <path d="M30.5835465,14.1746007 C30.8233089,13.9385751 30.8233089,13.555902 30.5835465,13.3198763 C30.343784,13.0838507 29.9550522,13.0838507 29.7152897,13.3198763 L22.1353774,20.7816502 C21.8956149,21.0176758 21.8956149,21.4003489 22.1353774,21.6363745 C22.3751399,21.8724001 22.7638717,21.8724001 23.0036341,21.6363745 L30.5835465,14.1746007 Z" id="Line-Copy-23" fill="#DCEFFE" fill-rule="evenodd"></path>
        </g>
    </g>
</svg>