<?xml version="1.0" encoding="UTF-8"?>
<svg width="44px" height="44px" viewBox="0 0 44 44" version="1.1" xmlns="http://www.w3.org/2000/svg" xmlns:xlink="http://www.w3.org/1999/xlink">
    <!-- Generator: Sketch 48.1 (47250) - http://www.bohemiancoding.com/sketch -->
    <title>house</title>
    <desc>Created with Sketch.</desc>
    <defs></defs>
    <g id="Page-2" stroke="none" stroke-width="1" fill="none" fill-rule="evenodd">
        <g id="Page-1" transform="translate(-162.000000, -108.000000)">
            <g id="house" transform="translate(162.000000, 108.000000)">
                <path d="M12,40 C12.553,40 13,39.553 13,39 L13,12 C13,11.448 13.448,11 14,11 L30,11 C30.552,11 31,11.448 31,12 L31,39 C31,39.553 31.447,40 32,40 C32.553,40 33,39.553 33,39 L33,12 C33,10.346 31.654,9 30,9 L18,9 L18,7 L26,7 C26,7.553 26.447,8 27,8 C27.553,8 28,7.553 28,7 L28,6 C28,5.447 27.553,5 27,5 L23,5 L23,1 C23,0.447 22.553,0 22,0 C21.447,0 21,0.447 21,1 L21,5 L17,5 C16.447,5 16,5.447 16,6 L16,9 L14,9 C12.346,9 11,10.346 11,12 L11,39 C11,39.553 11.447,40 12,40" id="Fill-114" fill="#008AFF"></path>
                <path d="M23,42 L23,37 C23,36.447 22.553,36 22,36 C21.447,36 21,36.447 21,37 L21,42 L18,42 L18,34 L26,34 L26,42 L23,42 Z M41,20 L36,20 C35.447,20 35,20.447 35,21 C35,21.553 35.447,22 36,22 L41,22 C41.552,22 42,22.448 42,23 L42,42 L28,42 L28,34 L29,34 C29.553,34 30,33.553 30,33 C30,32.447 29.553,32 29,32 L27,32 L17,32 L15,32 C14.447,32 14,32.447 14,33 C14,33.553 14.447,34 15,34 L16,34 L16,42 L2,42 L2,23 C2,22.448 2.448,22 3,22 L8,22 C8.553,22 9,21.553 9,21 C9,20.447 8.553,20 8,20 L3,20 C1.346,20 0,21.346 0,23 L0,43 C0,43.553 0.447,44 1,44 L43,44 C43.553,44 44,43.553 44,43 L44,23 C44,21.346 42.654,20 41,20 Z" id="Fill-116" fill="#008AFF"></path>
                <path d="M23.2842,21.4072 C23.0622,21.6352 22.9622,21.9532 23.0132,22.2662 L23.1532,23.1292 L22.4832,22.7592 C22.3332,22.6762 22.1672,22.6342 22.0002,22.6342 C21.8332,22.6342 21.6672,22.6762 21.5162,22.7592 L20.8462,23.1292 L20.9872,22.2662 C21.0382,21.9532 20.9372,21.6342 20.7162,21.4072 L20.0752,20.7502 L20.9152,20.6222 C21.2442,20.5722 21.5272,20.3602 21.6692,20.0582 L22.0002,19.3532 L22.3312,20.0582 C22.4722,20.3602 22.7562,20.5722 23.0852,20.6222 L23.9252,20.7502 L23.2842,21.4072 Z M26.9482,19.7382 C26.8292,19.3832 26.5212,19.1242 26.1512,19.0672 L23.9152,18.7252 L22.9052,16.5752 C22.7402,16.2232 22.3882,16.0002 22.0002,16.0002 C21.6122,16.0002 21.2602,16.2232 21.0952,16.5752 L20.0852,18.7252 L17.8482,19.0672 C17.4782,19.1242 17.1712,19.3832 17.0522,19.7382 C16.9322,20.0942 17.0222,20.4852 17.2842,20.7542 L18.9312,22.4422 L18.5412,24.8392 C18.4792,25.2172 18.6392,25.5962 18.9522,25.8172 C19.2642,26.0372 19.6782,26.0612 20.0122,25.8752 L22.0002,24.7762 L23.9882,25.8752 C24.1382,25.9592 24.3052,26.0002 24.4712,26.0002 C24.6742,26.0002 24.8762,25.9382 25.0482,25.8172 C25.3602,25.5962 25.5202,25.2172 25.4592,24.8392 L25.0682,22.4422 L26.7162,20.7542 C26.9772,20.4852 27.0672,20.0942 26.9482,19.7382 Z" id="Fill-118" fill="#DCEFFE"></path>
                <path d="M36,27 L39,27 C39.553,27 40,26.553 40,26 C40,25.447 39.553,25 39,25 L36,25 C35.447,25 35,25.447 35,26 C35,26.553 35.447,27 36,27" id="Fill-120" fill="#DCEFFE"></path>
                <path d="M36,33 L39,33 C39.553,33 40,32.553 40,32 C40,31.447 39.553,31 39,31 L36,31 C35.447,31 35,31.447 35,32 C35,32.553 35.447,33 36,33" id="Fill-122" fill="#DCEFFE"></path>
                <path d="M36,39 L39,39 C39.553,39 40,38.553 40,38 C40,37.447 39.553,37 39,37 L36,37 C35.447,37 35,37.447 35,38 C35,38.553 35.447,39 36,39" id="Fill-124" fill="#DCEFFE"></path>
                <path d="M8,25 L5,25 C4.447,25 4,25.447 4,26 C4,26.553 4.447,27 5,27 L8,27 C8.553,27 9,26.553 9,26 C9,25.447 8.553,25 8,25" id="Fill-126" fill="#DCEFFE"></path>
                <path d="M8,31 L5,31 C4.447,31 4,31.447 4,32 C4,32.553 4.447,33 5,33 L8,33 C8.553,33 9,32.553 9,32 C9,31.447 8.553,31 8,31" id="Fill-128" fill="#DCEFFE"></path>
                <path d="M8,37 L5,37 C4.447,37 4,37.447 4,38 C4,38.553 4.447,39 5,39 L8,39 C8.553,39 9,38.553 9,38 C9,37.447 8.553,37 8,37" id="Fill-130" fill="#DCEFFE"></path>
            </g>
        </g>
    </g>
</svg>