<?xml version="1.0" encoding="UTF-8"?>
<svg width="78px" height="78px" viewBox="0 0 78 78" version="1.1" xmlns="http://www.w3.org/2000/svg" xmlns:xlink="http://www.w3.org/1999/xlink">
    <!-- Generator: Sketch 48.1 (47250) - http://www.bohemiancoding.com/sketch -->
    <title>target</title>
    <desc>Created with Sketch.</desc>
    <defs>
        <polygon id="path-1" points="0.4217 0.7052 68.7147 0.7052 68.7147 69 0.4217 69"></polygon>
        <polygon id="path-3" points="0 0.0252 44.9719 0.0252 44.9719 45.2562 0 45.2562"></polygon>
    </defs>
    <g id="Page-2" stroke="none" stroke-width="1" fill="none" fill-rule="evenodd">
        <g id="target" transform="translate(0.000000, -1.000000)">
            <path d="M43.4437,51.6083 C39.6577,51.6083 36.5877,48.5383 36.5877,44.7523 C36.5877,40.9653 39.6577,37.8953 43.4437,37.8953 C47.2307,37.8953 50.2997,40.9653 50.2997,44.7523 C50.2997,48.5383 47.2307,51.6083 43.4437,51.6083 M43.4437,23.6603 C31.7957,23.6603 22.3517,33.1033 22.3517,44.7523 C22.3517,56.4003 31.7957,65.8433 43.4437,65.8433 C55.0927,65.8433 64.5357,56.4003 64.5357,44.7523 C64.5357,33.1033 55.0927,23.6603 43.4437,23.6603" id="Fill-1" fill="#DCEFFE"></path>
            <path d="M43.4437,52.0297 C39.5167,52.0297 36.3337,48.8457 36.3337,44.9187 C36.3337,40.9907 39.5167,37.8077 43.4437,37.8077 C47.3717,37.8077 50.5547,40.9907 50.5547,44.9187 C50.5547,48.8457 47.3717,52.0297 43.4437,52.0297" id="Fill-3" fill="#66E1F7"></path>
            <path d="M43.1107,65.9189 C31.5127,65.9189 22.1107,56.5169 22.1107,44.9189 C22.1107,33.3209 31.5127,23.9189 43.1107,23.9189 C54.7087,23.9189 64.1107,33.3209 64.1107,44.9189 C64.1107,56.5169 54.7087,65.9189 43.1107,65.9189 M43.1107,11.9189 C24.8847,11.9189 10.1107,26.6929 10.1107,44.9189 C10.1107,63.1439 24.8847,77.9189 43.1107,77.9189 C61.3367,77.9189 76.1107,63.1439 76.1107,44.9189 C76.1107,26.6929 61.3367,11.9189 43.1107,11.9189" id="Fill-5" fill="#DCEFFE"></path>
            <g id="Group-9" transform="translate(9.000000, 9.974900)">
                <mask id="mask-2" fill="white">
                    <use xlink:href="#path-1"></use>
                </mask>
                <g id="Clip-8"></g>
                <path d="M34.5677,0.7052 C27.3447,0.7052 20.4407,2.9332 14.6037,7.1462 C13.9737,7.6002 13.8337,8.4782 14.2867,9.1062 C14.3307,9.1662 14.3927,9.2002 14.4427,9.2512 C14.9207,9.7342 15.6757,9.8342 16.2457,9.4232 C21.6027,5.5562 27.9387,3.5122 34.5677,3.5122 C51.8487,3.5122 65.9087,17.5722 65.9087,34.8532 C65.9087,52.1342 51.8487,66.1932 34.5677,66.1932 C17.2877,66.1932 3.2277,52.1342 3.2277,34.8532 C3.2277,28.0482 5.3717,21.5772 9.4247,16.1392 C9.8437,15.5772 9.7567,14.8192 9.2817,14.3342 C9.2307,14.2822 9.1987,14.2192 9.1387,14.1752 C8.5167,13.7122 7.6397,13.8402 7.1747,14.4612 C2.7557,20.3882 0.4217,27.4392 0.4217,34.8532 C0.4217,53.6812 15.7397,69.0002 34.5677,69.0002 C53.3967,69.0002 68.7147,53.6812 68.7147,34.8532 C68.7147,16.0232 53.3967,0.7052 34.5677,0.7052" id="Fill-7" fill="#008AFF" mask="url(#mask-2)"></path>
            </g>
            <path d="M26.516,32.4906 C26.442,32.4166 26.381,32.3326 26.289,32.2756 C25.633,31.8616 24.769,32.0556 24.353,32.7116 C22.066,36.3326 20.856,40.5226 20.856,44.8276 C20.856,57.3516 31.044,67.5406 43.568,67.5406 C56.092,67.5406 66.281,57.3516 66.281,44.8276 C66.281,32.3036 56.092,22.1146 43.568,22.1146 C39.303,22.1146 35.146,23.3036 31.546,25.5536 C30.889,25.9656 30.689,26.8306 31.1,27.4886 C31.158,27.5806 31.241,27.6406 31.315,27.7146 C31.766,28.1666 32.468,28.2886 33.035,27.9346 C36.187,25.9636 39.829,24.9216 43.568,24.9216 C54.545,24.9216 63.474,33.8506 63.474,44.8276 C63.474,55.8036 54.545,64.7336 43.568,64.7336 C32.591,64.7336 23.662,55.8036 23.662,44.8276 C23.662,41.0536 24.722,37.3836 26.727,34.2106 C27.083,33.6476 26.966,32.9446 26.516,32.4906" id="Fill-10" fill="#008AFF"></path>
            <path d="M36.8548,42.5024 C36.6588,42.3074 36.4198,42.1514 36.1258,42.1004 C35.3638,41.9724 34.6358,42.4814 34.5048,43.2454 C34.4148,43.7654 34.3698,44.2984 34.3698,44.8284 C34.3698,49.9004 38.4958,54.0274 43.5678,54.0274 C48.6408,54.0274 52.7668,49.9004 52.7668,44.8284 C52.7668,39.7544 48.6408,35.6284 43.5678,35.6284 C42.9938,35.6284 42.4188,35.6814 41.8608,35.7864 C41.0978,35.9294 40.5968,36.6634 40.7408,37.4244 C40.7958,37.7174 40.9558,37.9524 41.1528,38.1464 C41.4698,38.4594 41.9118,38.6344 42.3778,38.5454 C42.7678,38.4724 43.1678,38.4354 43.5678,38.4354 C47.0928,38.4354 49.9598,41.3024 49.9598,44.8284 C49.9598,48.3534 47.0928,51.2204 43.5678,51.2204 C40.0428,51.2204 37.1758,48.3534 37.1758,44.8284 C37.1758,44.4584 37.2078,44.0854 37.2708,43.7224 C37.3518,43.2524 37.1698,42.8144 36.8548,42.5024" id="Fill-12" fill="#008AFF"></path>
            <g id="Group-16" transform="translate(0.000000, 0.974900)">
                <mask id="mask-4" fill="white">
                    <use xlink:href="#path-3"></use>
                </mask>
                <g id="Clip-15"></g>
                <path d="M19.6839,21.9532 L27.8839,30.1532 L38.0479,40.3182 L42.5759,44.8452 C42.8499,45.1192 43.2089,45.2562 43.5679,45.2562 C43.9269,45.2562 44.2869,45.1192 44.5609,44.8452 C45.1089,44.2972 45.1089,43.4092 44.5609,42.8602 L40.0199,38.3202 L29.8729,28.1742 L21.6839,19.9842 L16.4839,14.7842 L16.4839,6.6262 C16.4839,5.8512 15.8559,5.2232 15.0799,5.2232 C14.3039,5.2232 13.6769,5.8512 13.6769,6.6262 L13.6769,11.9762 L11.3839,9.6842 L11.3839,1.4282 C11.3839,0.6532 10.7559,0.0252 9.9799,0.0252 C9.2049,0.0252 8.5769,0.6532 8.5769,1.4282 L8.5769,8.6012 L1.4039,8.6012 C0.6269,8.6012 -0.0001,9.2292 -0.0001,10.0042 C-0.0001,10.7802 0.6269,11.4082 1.4039,11.4082 L9.1389,11.4082 L11.5289,13.7982 L6.5029,13.7982 C5.7279,13.7982 5.0999,14.4272 5.0999,15.2022 C5.0999,15.9762 5.7279,16.6052 6.5029,16.6052 L14.3359,16.6052 L19.6839,21.9532 Z" id="Fill-14" fill="#008AFF" mask="url(#mask-4)"></path>
            </g>
        </g>
    </g>
</svg>